<mxfile host="app.diagrams.net" agent="Mozilla/5.0 (Windows NT 10.0; Win64; x64) AppleWebKit/537.36 (KHTML, like Gecko) Chrome/140.0.0.0 Safari/537.36" version="28.2.5" pages="4">
  <diagram name="Autentikasi" id="PfvASY_-sIWjir-BzBfO">
    <mxGraphModel dx="4780" dy="2255" grid="1" gridSize="10" guides="1" tooltips="1" connect="1" arrows="1" fold="1" page="1" pageScale="1" pageWidth="850" pageHeight="1100" math="0" shadow="0">
      <root>
        <mxCell id="0" />
        <mxCell id="1" parent="0" />
        <mxCell id="8i0FlOgcaVSUHZOdmUGf-1" style="edgeStyle=orthogonalEdgeStyle;rounded=0;orthogonalLoop=1;jettySize=auto;html=1;exitX=0.5;exitY=1;exitDx=0;exitDy=0;exitPerimeter=0;entryX=0.5;entryY=0;entryDx=0;entryDy=0;" edge="1" parent="1" source="8i0FlOgcaVSUHZOdmUGf-2" target="8i0FlOgcaVSUHZOdmUGf-4">
          <mxGeometry relative="1" as="geometry" />
        </mxCell>
        <mxCell id="8i0FlOgcaVSUHZOdmUGf-2" value="&lt;font style=&quot;font-size: 10px;&quot;&gt;Start&lt;/font&gt;" style="strokeWidth=2;html=1;shape=mxgraph.flowchart.terminator;whiteSpace=wrap;" vertex="1" parent="1">
          <mxGeometry x="269.13" y="85" width="52.5" height="30" as="geometry" />
        </mxCell>
        <mxCell id="8i0FlOgcaVSUHZOdmUGf-3" style="edgeStyle=orthogonalEdgeStyle;rounded=0;orthogonalLoop=1;jettySize=auto;html=1;exitX=0.5;exitY=1;exitDx=0;exitDy=0;entryX=0.5;entryY=0;entryDx=0;entryDy=0;" edge="1" parent="1" source="8i0FlOgcaVSUHZOdmUGf-4" target="8i0FlOgcaVSUHZOdmUGf-18">
          <mxGeometry relative="1" as="geometry" />
        </mxCell>
        <mxCell id="8i0FlOgcaVSUHZOdmUGf-4" value="&lt;font style=&quot;font-size: 10px;&quot;&gt;Tampilkan Form Pendaftaran&lt;/font&gt;" style="rounded=0;whiteSpace=wrap;html=1;" vertex="1" parent="1">
          <mxGeometry x="231.21" y="145" width="128.98" height="30" as="geometry" />
        </mxCell>
        <mxCell id="8i0FlOgcaVSUHZOdmUGf-5" style="edgeStyle=orthogonalEdgeStyle;rounded=0;orthogonalLoop=1;jettySize=auto;html=1;exitX=0.5;exitY=1;exitDx=0;exitDy=0;entryX=0.5;entryY=0;entryDx=0;entryDy=0;" edge="1" parent="1">
          <mxGeometry relative="1" as="geometry">
            <mxPoint x="758.6949999999997" y="2227.5" as="sourcePoint" />
          </mxGeometry>
        </mxCell>
        <mxCell id="8i0FlOgcaVSUHZOdmUGf-6" style="edgeStyle=orthogonalEdgeStyle;rounded=0;orthogonalLoop=1;jettySize=auto;html=1;exitX=0;exitY=0.5;exitDx=0;exitDy=0;entryX=0.5;entryY=0;entryDx=0;entryDy=0;" edge="1" parent="1">
          <mxGeometry relative="1" as="geometry">
            <mxPoint x="336.36" y="1010" as="sourcePoint" />
          </mxGeometry>
        </mxCell>
        <mxCell id="8i0FlOgcaVSUHZOdmUGf-7" style="edgeStyle=orthogonalEdgeStyle;rounded=0;orthogonalLoop=1;jettySize=auto;html=1;exitX=1;exitY=0.5;exitDx=0;exitDy=0;entryX=0.5;entryY=0;entryDx=0;entryDy=0;" edge="1" parent="1">
          <mxGeometry relative="1" as="geometry">
            <mxPoint x="453.03" y="1010" as="sourcePoint" />
          </mxGeometry>
        </mxCell>
        <mxCell id="8i0FlOgcaVSUHZOdmUGf-8" style="edgeStyle=orthogonalEdgeStyle;rounded=0;orthogonalLoop=1;jettySize=auto;html=1;exitX=0;exitY=0.5;exitDx=0;exitDy=0;entryX=0.5;entryY=1;entryDx=0;entryDy=0;" edge="1" parent="1">
          <mxGeometry relative="1" as="geometry">
            <mxPoint x="699.7799999999997" y="2312.5" as="sourcePoint" />
          </mxGeometry>
        </mxCell>
        <mxCell id="8i0FlOgcaVSUHZOdmUGf-9" value="" style="edgeStyle=orthogonalEdgeStyle;rounded=0;orthogonalLoop=1;jettySize=auto;html=1;entryX=0.5;entryY=0;entryDx=0;entryDy=0;" edge="1" parent="1">
          <mxGeometry relative="1" as="geometry">
            <mxPoint x="758.6949999999997" y="2187.5" as="targetPoint" />
          </mxGeometry>
        </mxCell>
        <mxCell id="8i0FlOgcaVSUHZOdmUGf-10" style="edgeStyle=orthogonalEdgeStyle;rounded=0;orthogonalLoop=1;jettySize=auto;html=1;exitX=0.5;exitY=0;exitDx=0;exitDy=0;entryX=0;entryY=0.5;entryDx=0;entryDy=0;entryPerimeter=0;" edge="1" parent="1">
          <mxGeometry relative="1" as="geometry">
            <mxPoint x="693.1199999999999" y="2132.5" as="targetPoint" />
          </mxGeometry>
        </mxCell>
        <mxCell id="8i0FlOgcaVSUHZOdmUGf-11" value="" style="edgeStyle=orthogonalEdgeStyle;rounded=0;orthogonalLoop=1;jettySize=auto;html=1;" edge="1" parent="1" source="8i0FlOgcaVSUHZOdmUGf-12" target="8i0FlOgcaVSUHZOdmUGf-16">
          <mxGeometry relative="1" as="geometry" />
        </mxCell>
        <mxCell id="8i0FlOgcaVSUHZOdmUGf-12" value="&lt;font style=&quot;font-size: 10px;&quot;&gt;Start&lt;/font&gt;" style="strokeWidth=2;html=1;shape=mxgraph.flowchart.terminator;whiteSpace=wrap;" vertex="1" parent="1">
          <mxGeometry x="734.8299999999999" y="1140" width="52.5" height="30" as="geometry" />
        </mxCell>
        <mxCell id="8i0FlOgcaVSUHZOdmUGf-13" value="" style="edgeStyle=orthogonalEdgeStyle;rounded=0;orthogonalLoop=1;jettySize=auto;html=1;" edge="1" parent="1" source="8i0FlOgcaVSUHZOdmUGf-16" target="8i0FlOgcaVSUHZOdmUGf-47">
          <mxGeometry relative="1" as="geometry" />
        </mxCell>
        <mxCell id="8i0FlOgcaVSUHZOdmUGf-14" style="edgeStyle=orthogonalEdgeStyle;rounded=0;orthogonalLoop=1;jettySize=auto;html=1;exitX=0;exitY=1;exitDx=0;exitDy=0;entryX=0.5;entryY=0;entryDx=0;entryDy=0;" edge="1" parent="1" source="8i0FlOgcaVSUHZOdmUGf-16" target="8i0FlOgcaVSUHZOdmUGf-45">
          <mxGeometry relative="1" as="geometry" />
        </mxCell>
        <mxCell id="8i0FlOgcaVSUHZOdmUGf-15" style="edgeStyle=orthogonalEdgeStyle;rounded=0;orthogonalLoop=1;jettySize=auto;html=1;exitX=0;exitY=0.5;exitDx=0;exitDy=0;entryX=0.5;entryY=0;entryDx=0;entryDy=0;" edge="1" parent="1" source="8i0FlOgcaVSUHZOdmUGf-16" target="8i0FlOgcaVSUHZOdmUGf-50">
          <mxGeometry relative="1" as="geometry" />
        </mxCell>
        <mxCell id="8i0FlOgcaVSUHZOdmUGf-16" value="&lt;font style=&quot;font-size: 10px;&quot;&gt;Pilih Aksi&lt;/font&gt;" style="rhombus;whiteSpace=wrap;html=1;" vertex="1" parent="1">
          <mxGeometry x="728.25" y="1200" width="65.67" height="62.5" as="geometry" />
        </mxCell>
        <mxCell id="8i0FlOgcaVSUHZOdmUGf-17" style="edgeStyle=orthogonalEdgeStyle;rounded=0;orthogonalLoop=1;jettySize=auto;html=1;exitX=0.5;exitY=1;exitDx=0;exitDy=0;entryX=0.5;entryY=0;entryDx=0;entryDy=0;" edge="1" parent="1" source="8i0FlOgcaVSUHZOdmUGf-18" target="8i0FlOgcaVSUHZOdmUGf-22">
          <mxGeometry relative="1" as="geometry" />
        </mxCell>
        <mxCell id="8i0FlOgcaVSUHZOdmUGf-18" value="&lt;span style=&quot;font-size: 10px;&quot;&gt;Input Data:&lt;/span&gt;&lt;div&gt;&lt;span style=&quot;font-size: 10px;&quot;&gt;- Anak&lt;/span&gt;&lt;/div&gt;&lt;div&gt;&lt;span style=&quot;font-size: 10px;&quot;&gt;- Orang Tua&lt;/span&gt;&lt;/div&gt;" style="shape=parallelogram;perimeter=parallelogramPerimeter;whiteSpace=wrap;html=1;fixedSize=1;" vertex="1" parent="1">
          <mxGeometry x="221.31000000000003" y="205" width="148.78" height="50" as="geometry" />
        </mxCell>
        <mxCell id="8i0FlOgcaVSUHZOdmUGf-19" style="edgeStyle=orthogonalEdgeStyle;rounded=0;orthogonalLoop=1;jettySize=auto;html=1;exitX=1;exitY=0.5;exitDx=0;exitDy=0;entryX=0;entryY=0.5;entryDx=0;entryDy=0;" edge="1" parent="1" source="8i0FlOgcaVSUHZOdmUGf-22" target="8i0FlOgcaVSUHZOdmUGf-26">
          <mxGeometry relative="1" as="geometry" />
        </mxCell>
        <mxCell id="8i0FlOgcaVSUHZOdmUGf-20" style="edgeStyle=orthogonalEdgeStyle;rounded=0;orthogonalLoop=1;jettySize=auto;html=1;exitX=0.5;exitY=1;exitDx=0;exitDy=0;entryX=0.5;entryY=0;entryDx=0;entryDy=0;" edge="1" parent="1" source="8i0FlOgcaVSUHZOdmUGf-22" target="8i0FlOgcaVSUHZOdmUGf-31">
          <mxGeometry relative="1" as="geometry" />
        </mxCell>
        <mxCell id="8i0FlOgcaVSUHZOdmUGf-21" value="" style="edgeStyle=orthogonalEdgeStyle;rounded=0;orthogonalLoop=1;jettySize=auto;html=1;" edge="1" parent="1" source="8i0FlOgcaVSUHZOdmUGf-22" target="8i0FlOgcaVSUHZOdmUGf-24">
          <mxGeometry relative="1" as="geometry" />
        </mxCell>
        <mxCell id="8i0FlOgcaVSUHZOdmUGf-22" value="&lt;font style=&quot;font-size: 10px;&quot;&gt;Validasi Input&lt;/font&gt;" style="rhombus;whiteSpace=wrap;html=1;" vertex="1" parent="1">
          <mxGeometry x="258.2700000000001" y="295" width="74.87" height="70" as="geometry" />
        </mxCell>
        <mxCell id="8i0FlOgcaVSUHZOdmUGf-23" style="edgeStyle=orthogonalEdgeStyle;rounded=0;orthogonalLoop=1;jettySize=auto;html=1;entryX=0;entryY=0.5;entryDx=0;entryDy=0;exitX=0.5;exitY=0;exitDx=0;exitDy=0;" edge="1" parent="1" source="8i0FlOgcaVSUHZOdmUGf-24" target="8i0FlOgcaVSUHZOdmUGf-18">
          <mxGeometry relative="1" as="geometry">
            <mxPoint x="211.31" y="230" as="targetPoint" />
            <mxPoint x="95.8" y="315" as="sourcePoint" />
            <Array as="points">
              <mxPoint x="115.8" y="230" />
            </Array>
          </mxGeometry>
        </mxCell>
        <mxCell id="8i0FlOgcaVSUHZOdmUGf-24" value="&lt;font style=&quot;font-size: 10px;&quot;&gt;Error: Semua Field Wajib Diisi&lt;/font&gt;" style="rounded=0;whiteSpace=wrap;html=1;" vertex="1" parent="1">
          <mxGeometry x="65.8" y="315" width="100" height="30" as="geometry" />
        </mxCell>
        <mxCell id="8i0FlOgcaVSUHZOdmUGf-25" style="edgeStyle=orthogonalEdgeStyle;rounded=0;orthogonalLoop=1;jettySize=auto;html=1;exitX=0.5;exitY=0;exitDx=0;exitDy=0;entryX=1;entryY=0.5;entryDx=0;entryDy=0;" edge="1" parent="1" source="8i0FlOgcaVSUHZOdmUGf-26" target="8i0FlOgcaVSUHZOdmUGf-18">
          <mxGeometry relative="1" as="geometry">
            <Array as="points">
              <mxPoint x="487.8" y="230" />
            </Array>
          </mxGeometry>
        </mxCell>
        <mxCell id="8i0FlOgcaVSUHZOdmUGf-26" value="&lt;font style=&quot;font-size: 10px;&quot;&gt;Error: Format Salah&lt;/font&gt;" style="rounded=0;whiteSpace=wrap;html=1;" vertex="1" parent="1">
          <mxGeometry x="437.44000000000005" y="315" width="99.64" height="30" as="geometry" />
        </mxCell>
        <mxCell id="8i0FlOgcaVSUHZOdmUGf-27" value="&lt;font style=&quot;font-size: 10px;&quot;&gt;Data Kosong&lt;/font&gt;" style="text;html=1;align=center;verticalAlign=middle;whiteSpace=wrap;rounded=0;" vertex="1" parent="1">
          <mxGeometry x="181.11" y="305" width="76" height="20" as="geometry" />
        </mxCell>
        <mxCell id="8i0FlOgcaVSUHZOdmUGf-28" value="&lt;font style=&quot;font-size: 10px;&quot;&gt;Format Salah&lt;/font&gt;" style="text;html=1;align=center;verticalAlign=middle;whiteSpace=wrap;rounded=0;" vertex="1" parent="1">
          <mxGeometry x="336.65000000000003" y="305" width="76" height="20" as="geometry" />
        </mxCell>
        <mxCell id="8i0FlOgcaVSUHZOdmUGf-29" style="edgeStyle=orthogonalEdgeStyle;rounded=0;orthogonalLoop=1;jettySize=auto;html=1;exitX=0.5;exitY=1;exitDx=0;exitDy=0;entryX=0.5;entryY=0;entryDx=0;entryDy=0;" edge="1" parent="1" source="8i0FlOgcaVSUHZOdmUGf-31" target="8i0FlOgcaVSUHZOdmUGf-36">
          <mxGeometry relative="1" as="geometry" />
        </mxCell>
        <mxCell id="8i0FlOgcaVSUHZOdmUGf-30" value="" style="edgeStyle=orthogonalEdgeStyle;rounded=0;orthogonalLoop=1;jettySize=auto;html=1;" edge="1" parent="1" source="8i0FlOgcaVSUHZOdmUGf-31" target="8i0FlOgcaVSUHZOdmUGf-34">
          <mxGeometry relative="1" as="geometry" />
        </mxCell>
        <mxCell id="8i0FlOgcaVSUHZOdmUGf-31" value="&lt;font style=&quot;font-size: 10px;&quot;&gt;Cek Database:&lt;/font&gt;&lt;div&gt;&lt;font style=&quot;font-size: 10px;&quot;&gt;Email Sudah Ada?&lt;/font&gt;&lt;/div&gt;" style="rhombus;whiteSpace=wrap;html=1;" vertex="1" parent="1">
          <mxGeometry x="237.73000000000005" y="415" width="117.65" height="110" as="geometry" />
        </mxCell>
        <mxCell id="8i0FlOgcaVSUHZOdmUGf-32" value="&lt;font style=&quot;font-size: 10px;&quot;&gt;Valid&lt;/font&gt;" style="text;html=1;align=center;verticalAlign=middle;whiteSpace=wrap;rounded=0;" vertex="1" parent="1">
          <mxGeometry x="248.85000000000002" y="380" width="40" height="20" as="geometry" />
        </mxCell>
        <mxCell id="8i0FlOgcaVSUHZOdmUGf-33" style="edgeStyle=orthogonalEdgeStyle;rounded=0;orthogonalLoop=1;jettySize=auto;html=1;exitX=0.5;exitY=0;exitDx=0;exitDy=0;" edge="1" parent="1" source="8i0FlOgcaVSUHZOdmUGf-34">
          <mxGeometry relative="1" as="geometry">
            <mxPoint x="250" y="255" as="targetPoint" />
            <Array as="points">
              <mxPoint x="131" y="410" />
              <mxPoint x="250" y="410" />
              <mxPoint x="250" y="255" />
            </Array>
          </mxGeometry>
        </mxCell>
        <mxCell id="8i0FlOgcaVSUHZOdmUGf-34" value="&lt;font style=&quot;font-size: 10px;&quot;&gt;Error: Email Sudah Digunakan&lt;/font&gt;" style="rounded=0;whiteSpace=wrap;html=1;" vertex="1" parent="1">
          <mxGeometry x="81.10999999999999" y="455" width="100" height="30" as="geometry" />
        </mxCell>
        <mxCell id="8i0FlOgcaVSUHZOdmUGf-35" value="&lt;font style=&quot;font-size: 10px;&quot;&gt;Ya&lt;/font&gt;" style="text;html=1;align=center;verticalAlign=middle;whiteSpace=wrap;rounded=0;" vertex="1" parent="1">
          <mxGeometry x="191.31000000000003" y="440" width="40" height="20" as="geometry" />
        </mxCell>
        <mxCell id="8i0FlOgcaVSUHZOdmUGf-36" value="&lt;span style=&quot;font-size: 10px;&quot;&gt;Proses Enkripsi Data Sensitif&lt;/span&gt;" style="rounded=0;whiteSpace=wrap;html=1;" vertex="1" parent="1">
          <mxGeometry x="237.81000000000006" y="580" width="117.57" height="40" as="geometry" />
        </mxCell>
        <mxCell id="8i0FlOgcaVSUHZOdmUGf-37" style="edgeStyle=orthogonalEdgeStyle;rounded=0;orthogonalLoop=1;jettySize=auto;html=1;exitX=0.5;exitY=1;exitDx=0;exitDy=0;exitPerimeter=0;entryX=0.5;entryY=0;entryDx=0;entryDy=0;" edge="1" parent="1" source="8i0FlOgcaVSUHZOdmUGf-38" target="8i0FlOgcaVSUHZOdmUGf-40">
          <mxGeometry relative="1" as="geometry" />
        </mxCell>
        <mxCell id="8i0FlOgcaVSUHZOdmUGf-38" value="&lt;font style=&quot;font-size: 8px;&quot;&gt;Simpan ke Database:&lt;/font&gt;&lt;div&gt;&lt;font style=&quot;font-size: 8px;&quot;&gt;Table: guardian, children, observation: status =&amp;gt; pending.&lt;/font&gt;&lt;/div&gt;" style="shape=cylinder3;whiteSpace=wrap;html=1;boundedLbl=1;backgroundOutline=1;size=15;" vertex="1" parent="1">
          <mxGeometry x="253.14000000000004" y="680" width="87.57" height="110" as="geometry" />
        </mxCell>
        <mxCell id="8i0FlOgcaVSUHZOdmUGf-39" style="edgeStyle=orthogonalEdgeStyle;rounded=0;orthogonalLoop=1;jettySize=auto;html=1;exitX=0.5;exitY=1;exitDx=0;exitDy=0;entryX=0.5;entryY=0;entryDx=0;entryDy=0;entryPerimeter=0;" edge="1" parent="1" source="8i0FlOgcaVSUHZOdmUGf-36" target="8i0FlOgcaVSUHZOdmUGf-38">
          <mxGeometry relative="1" as="geometry" />
        </mxCell>
        <mxCell id="8i0FlOgcaVSUHZOdmUGf-40" value="&lt;span style=&quot;font-size: 10px;&quot;&gt;Pendaftaran Berhasil!&lt;/span&gt;" style="rounded=0;whiteSpace=wrap;html=1;" vertex="1" parent="1">
          <mxGeometry x="238.14000000000001" y="840" width="117.57" height="40" as="geometry" />
        </mxCell>
        <mxCell id="8i0FlOgcaVSUHZOdmUGf-41" value="&lt;font style=&quot;font-size: 10px;&quot;&gt;Selesai&lt;/font&gt;" style="strokeWidth=2;html=1;shape=mxgraph.flowchart.terminator;whiteSpace=wrap;" vertex="1" parent="1">
          <mxGeometry x="270.68" y="930" width="52.5" height="30" as="geometry" />
        </mxCell>
        <mxCell id="8i0FlOgcaVSUHZOdmUGf-42" style="edgeStyle=orthogonalEdgeStyle;rounded=0;orthogonalLoop=1;jettySize=auto;html=1;exitX=0.5;exitY=1;exitDx=0;exitDy=0;entryX=0.5;entryY=0;entryDx=0;entryDy=0;entryPerimeter=0;" edge="1" parent="1" source="8i0FlOgcaVSUHZOdmUGf-40" target="8i0FlOgcaVSUHZOdmUGf-41">
          <mxGeometry relative="1" as="geometry" />
        </mxCell>
        <mxCell id="8i0FlOgcaVSUHZOdmUGf-43" value="&lt;font style=&quot;font-size: 10px;&quot;&gt;Tidak&lt;/font&gt;" style="text;html=1;align=center;verticalAlign=middle;whiteSpace=wrap;rounded=0;" vertex="1" parent="1">
          <mxGeometry x="251.84000000000003" y="540" width="40" height="20" as="geometry" />
        </mxCell>
        <mxCell id="8i0FlOgcaVSUHZOdmUGf-44" value="" style="edgeStyle=orthogonalEdgeStyle;rounded=0;orthogonalLoop=1;jettySize=auto;html=1;" edge="1" parent="1" source="8i0FlOgcaVSUHZOdmUGf-45" target="8i0FlOgcaVSUHZOdmUGf-82">
          <mxGeometry relative="1" as="geometry" />
        </mxCell>
        <mxCell id="8i0FlOgcaVSUHZOdmUGf-45" value="&lt;font style=&quot;font-size: 10px;&quot;&gt;User Klik Link Dari Email&lt;/font&gt;" style="rounded=0;whiteSpace=wrap;html=1;" vertex="1" parent="1">
          <mxGeometry x="170" y="1330" width="129.29" height="30" as="geometry" />
        </mxCell>
        <mxCell id="8i0FlOgcaVSUHZOdmUGf-46" value="" style="edgeStyle=orthogonalEdgeStyle;rounded=0;orthogonalLoop=1;jettySize=auto;html=1;" edge="1" parent="1" source="8i0FlOgcaVSUHZOdmUGf-47" target="8i0FlOgcaVSUHZOdmUGf-115">
          <mxGeometry relative="1" as="geometry" />
        </mxCell>
        <mxCell id="8i0FlOgcaVSUHZOdmUGf-47" value="&lt;font style=&quot;font-size: 10px;&quot;&gt;Form Login&lt;/font&gt;" style="rounded=0;whiteSpace=wrap;html=1;" vertex="1" parent="1">
          <mxGeometry x="723.32" y="1330" width="75.52" height="30" as="geometry" />
        </mxCell>
        <mxCell id="8i0FlOgcaVSUHZOdmUGf-48" value="&lt;font style=&quot;font-size: 10px;&quot;&gt;Login&lt;/font&gt;" style="text;html=1;align=center;verticalAlign=middle;whiteSpace=wrap;rounded=0;" vertex="1" parent="1">
          <mxGeometry x="715.3800000000001" y="1280" width="40" height="20" as="geometry" />
        </mxCell>
        <mxCell id="8i0FlOgcaVSUHZOdmUGf-49" style="edgeStyle=orthogonalEdgeStyle;rounded=0;orthogonalLoop=1;jettySize=auto;html=1;exitX=0.5;exitY=1;exitDx=0;exitDy=0;entryX=0.5;entryY=0;entryDx=0;entryDy=0;" edge="1" parent="1" source="8i0FlOgcaVSUHZOdmUGf-50" target="8i0FlOgcaVSUHZOdmUGf-54">
          <mxGeometry relative="1" as="geometry" />
        </mxCell>
        <mxCell id="8i0FlOgcaVSUHZOdmUGf-50" value="&lt;font style=&quot;font-size: 8px;&quot;&gt;Form Register&lt;/font&gt;" style="rounded=0;whiteSpace=wrap;html=1;" vertex="1" parent="1">
          <mxGeometry x="-478.18000000000006" y="1340" width="88.18" height="30" as="geometry" />
        </mxCell>
        <mxCell id="8i0FlOgcaVSUHZOdmUGf-51" value="&lt;font style=&quot;font-size: 10px;&quot;&gt;Verifikasi Email&lt;/font&gt;" style="text;html=1;align=center;verticalAlign=middle;whiteSpace=wrap;rounded=0;" vertex="1" parent="1">
          <mxGeometry x="260.71000000000004" y="1290" width="80" height="20" as="geometry" />
        </mxCell>
        <mxCell id="8i0FlOgcaVSUHZOdmUGf-52" value="&lt;font style=&quot;font-size: 8px;&quot;&gt;Register&lt;/font&gt;" style="text;html=1;align=center;verticalAlign=middle;whiteSpace=wrap;rounded=0;" vertex="1" parent="1">
          <mxGeometry x="-428.78999999999996" y="1290" width="80" height="20" as="geometry" />
        </mxCell>
        <mxCell id="8i0FlOgcaVSUHZOdmUGf-53" value="" style="edgeStyle=orthogonalEdgeStyle;rounded=0;orthogonalLoop=1;jettySize=auto;html=1;" edge="1" parent="1" source="8i0FlOgcaVSUHZOdmUGf-54" target="8i0FlOgcaVSUHZOdmUGf-61">
          <mxGeometry relative="1" as="geometry" />
        </mxCell>
        <mxCell id="8i0FlOgcaVSUHZOdmUGf-54" value="&lt;font style=&quot;font-size: 8px;&quot;&gt;Input Data Register&lt;/font&gt;" style="shape=parallelogram;perimeter=parallelogramPerimeter;whiteSpace=wrap;html=1;fixedSize=1;" vertex="1" parent="1">
          <mxGeometry x="-494.3299999999999" y="1410" width="120.48" height="30" as="geometry" />
        </mxCell>
        <mxCell id="8i0FlOgcaVSUHZOdmUGf-55" value="&lt;font style=&quot;font-size: 8px;&quot;&gt;Data Kosong&lt;/font&gt;" style="text;html=1;align=center;verticalAlign=middle;whiteSpace=wrap;rounded=0;" vertex="1" parent="1">
          <mxGeometry x="-547.52" y="1500" width="76" height="20" as="geometry" />
        </mxCell>
        <mxCell id="8i0FlOgcaVSUHZOdmUGf-56" style="edgeStyle=orthogonalEdgeStyle;rounded=0;orthogonalLoop=1;jettySize=auto;html=1;entryX=0;entryY=0.5;entryDx=0;entryDy=0;exitX=0.5;exitY=0;exitDx=0;exitDy=0;" edge="1" parent="1" source="8i0FlOgcaVSUHZOdmUGf-57" target="8i0FlOgcaVSUHZOdmUGf-54">
          <mxGeometry relative="1" as="geometry">
            <mxPoint x="-597" y="1470" as="sourcePoint" />
            <Array as="points">
              <mxPoint x="-620" y="1425" />
            </Array>
          </mxGeometry>
        </mxCell>
        <mxCell id="8i0FlOgcaVSUHZOdmUGf-57" value="&lt;font style=&quot;font-size: 8px;&quot;&gt;Error: Semua Field Wajib Diisi&lt;/font&gt;" style="rounded=0;whiteSpace=wrap;html=1;" vertex="1" parent="1">
          <mxGeometry x="-670" y="1510" width="100" height="30" as="geometry" />
        </mxCell>
        <mxCell id="8i0FlOgcaVSUHZOdmUGf-58" value="" style="edgeStyle=orthogonalEdgeStyle;rounded=0;orthogonalLoop=1;jettySize=auto;html=1;" edge="1" parent="1" source="8i0FlOgcaVSUHZOdmUGf-61" target="8i0FlOgcaVSUHZOdmUGf-57">
          <mxGeometry relative="1" as="geometry" />
        </mxCell>
        <mxCell id="8i0FlOgcaVSUHZOdmUGf-59" value="" style="edgeStyle=orthogonalEdgeStyle;rounded=0;orthogonalLoop=1;jettySize=auto;html=1;" edge="1" parent="1" source="8i0FlOgcaVSUHZOdmUGf-61" target="8i0FlOgcaVSUHZOdmUGf-63">
          <mxGeometry relative="1" as="geometry" />
        </mxCell>
        <mxCell id="8i0FlOgcaVSUHZOdmUGf-60" value="" style="edgeStyle=orthogonalEdgeStyle;rounded=0;orthogonalLoop=1;jettySize=auto;html=1;" edge="1" parent="1" source="8i0FlOgcaVSUHZOdmUGf-61" target="8i0FlOgcaVSUHZOdmUGf-67">
          <mxGeometry relative="1" as="geometry" />
        </mxCell>
        <mxCell id="8i0FlOgcaVSUHZOdmUGf-61" value="&lt;font style=&quot;font-size: 8px;&quot;&gt;Validasi Input&lt;/font&gt;" style="rhombus;whiteSpace=wrap;html=1;" vertex="1" parent="1">
          <mxGeometry x="-471.5199999999999" y="1490" width="74.87" height="70" as="geometry" />
        </mxCell>
        <mxCell id="8i0FlOgcaVSUHZOdmUGf-62" style="edgeStyle=orthogonalEdgeStyle;rounded=0;orthogonalLoop=1;jettySize=auto;html=1;entryX=1;entryY=0.5;entryDx=0;entryDy=0;" edge="1" parent="1" source="8i0FlOgcaVSUHZOdmUGf-63" target="8i0FlOgcaVSUHZOdmUGf-54">
          <mxGeometry relative="1" as="geometry">
            <Array as="points">
              <mxPoint x="-227" y="1425" />
            </Array>
          </mxGeometry>
        </mxCell>
        <mxCell id="8i0FlOgcaVSUHZOdmUGf-63" value="&lt;font style=&quot;font-size: 8px;&quot;&gt;Error: Format Email, Password&lt;/font&gt;" style="rounded=0;whiteSpace=wrap;html=1;" vertex="1" parent="1">
          <mxGeometry x="-277" y="1510" width="100" height="30" as="geometry" />
        </mxCell>
        <mxCell id="8i0FlOgcaVSUHZOdmUGf-64" value="&lt;font style=&quot;font-size: 8px;&quot;&gt;Format Tidak Sesuai&lt;/font&gt;" style="text;html=1;align=center;verticalAlign=middle;whiteSpace=wrap;rounded=0;" vertex="1" parent="1">
          <mxGeometry x="-390" y="1500" width="96" height="20" as="geometry" />
        </mxCell>
        <mxCell id="8i0FlOgcaVSUHZOdmUGf-65" value="" style="edgeStyle=orthogonalEdgeStyle;rounded=0;orthogonalLoop=1;jettySize=auto;html=1;" edge="1" parent="1" source="8i0FlOgcaVSUHZOdmUGf-67" target="8i0FlOgcaVSUHZOdmUGf-69">
          <mxGeometry relative="1" as="geometry" />
        </mxCell>
        <mxCell id="8i0FlOgcaVSUHZOdmUGf-66" value="" style="edgeStyle=orthogonalEdgeStyle;rounded=0;orthogonalLoop=1;jettySize=auto;html=1;" edge="1" parent="1" source="8i0FlOgcaVSUHZOdmUGf-67" target="8i0FlOgcaVSUHZOdmUGf-71">
          <mxGeometry relative="1" as="geometry" />
        </mxCell>
        <mxCell id="8i0FlOgcaVSUHZOdmUGf-67" value="&lt;font style=&quot;font-size: 8px;&quot;&gt;Username / Email&amp;nbsp;&lt;/font&gt;&lt;div&gt;&lt;font style=&quot;font-size: 8px;&quot;&gt;Sudah Ada?&lt;/font&gt;&lt;/div&gt;" style="rhombus;whiteSpace=wrap;html=1;" vertex="1" parent="1">
          <mxGeometry x="-476.87" y="1600" width="85.56" height="80" as="geometry" />
        </mxCell>
        <mxCell id="8i0FlOgcaVSUHZOdmUGf-68" style="edgeStyle=orthogonalEdgeStyle;rounded=0;orthogonalLoop=1;jettySize=auto;html=1;exitX=0.5;exitY=0;exitDx=0;exitDy=0;" edge="1" parent="1" source="8i0FlOgcaVSUHZOdmUGf-69" target="8i0FlOgcaVSUHZOdmUGf-54">
          <mxGeometry relative="1" as="geometry">
            <mxPoint x="-277" y="1580" as="sourcePoint" />
            <Array as="points">
              <mxPoint x="-276" y="1590" />
              <mxPoint x="-317" y="1590" />
              <mxPoint x="-317" y="1431" />
            </Array>
          </mxGeometry>
        </mxCell>
        <mxCell id="8i0FlOgcaVSUHZOdmUGf-69" value="&lt;font style=&quot;font-size: 8px;&quot;&gt;Error: Username/Email Sudah Digunakan&lt;/font&gt;" style="rounded=0;whiteSpace=wrap;html=1;" vertex="1" parent="1">
          <mxGeometry x="-325.89" y="1625" width="100" height="30" as="geometry" />
        </mxCell>
        <mxCell id="8i0FlOgcaVSUHZOdmUGf-70" value="" style="edgeStyle=orthogonalEdgeStyle;rounded=0;orthogonalLoop=1;jettySize=auto;html=1;" edge="1" parent="1" source="8i0FlOgcaVSUHZOdmUGf-71" target="8i0FlOgcaVSUHZOdmUGf-78">
          <mxGeometry relative="1" as="geometry" />
        </mxCell>
        <mxCell id="8i0FlOgcaVSUHZOdmUGf-71" value="&lt;font style=&quot;font-size: 8px;&quot;&gt;Hashing Password&lt;/font&gt;" style="rounded=0;whiteSpace=wrap;html=1;" vertex="1" parent="1">
          <mxGeometry x="-482.63" y="1730" width="97.09" height="30" as="geometry" />
        </mxCell>
        <mxCell id="8i0FlOgcaVSUHZOdmUGf-72" value="&lt;font style=&quot;font-size: 8px;&quot;&gt;Tidak&lt;/font&gt;" style="text;html=1;align=center;verticalAlign=middle;whiteSpace=wrap;rounded=0;" vertex="1" parent="1">
          <mxGeometry x="-482.63" y="1690" width="40" height="20" as="geometry" />
        </mxCell>
        <mxCell id="8i0FlOgcaVSUHZOdmUGf-73" value="&lt;font style=&quot;font-size: 8px;&quot;&gt;Ya&lt;/font&gt;" style="text;html=1;align=center;verticalAlign=middle;whiteSpace=wrap;rounded=0;" vertex="1" parent="1">
          <mxGeometry x="-385.54" y="1610" width="40" height="20" as="geometry" />
        </mxCell>
        <mxCell id="8i0FlOgcaVSUHZOdmUGf-74" value="" style="edgeStyle=orthogonalEdgeStyle;rounded=0;orthogonalLoop=1;jettySize=auto;html=1;" edge="1" parent="1" source="8i0FlOgcaVSUHZOdmUGf-75" target="8i0FlOgcaVSUHZOdmUGf-76">
          <mxGeometry relative="1" as="geometry" />
        </mxCell>
        <mxCell id="8i0FlOgcaVSUHZOdmUGf-75" value="&lt;font style=&quot;font-size: 8px;&quot;&gt;Kirim Email Verifikasi&lt;/font&gt;" style="strokeWidth=2;html=1;shape=mxgraph.flowchart.document2;whiteSpace=wrap;size=0.25;" vertex="1" parent="1">
          <mxGeometry x="-483.03999999999996" y="2010" width="97.5" height="30" as="geometry" />
        </mxCell>
        <mxCell id="8i0FlOgcaVSUHZOdmUGf-76" value="&lt;font style=&quot;font-size: 8px;&quot;&gt;Register Berhasil!&lt;/font&gt;" style="rounded=0;whiteSpace=wrap;html=1;" vertex="1" parent="1">
          <mxGeometry x="-488.1" y="2080" width="108.03" height="30" as="geometry" />
        </mxCell>
        <mxCell id="8i0FlOgcaVSUHZOdmUGf-77" value="" style="edgeStyle=orthogonalEdgeStyle;rounded=0;orthogonalLoop=1;jettySize=auto;html=1;" edge="1" parent="1" source="8i0FlOgcaVSUHZOdmUGf-78" target="8i0FlOgcaVSUHZOdmUGf-80">
          <mxGeometry relative="1" as="geometry" />
        </mxCell>
        <mxCell id="8i0FlOgcaVSUHZOdmUGf-78" value="&lt;span style=&quot;font-size: 8px;&quot;&gt;Membuat Verifkasi Token&lt;/span&gt;" style="rounded=0;whiteSpace=wrap;html=1;" vertex="1" parent="1">
          <mxGeometry x="-482.63" y="1800" width="97.09" height="30" as="geometry" />
        </mxCell>
        <mxCell id="8i0FlOgcaVSUHZOdmUGf-79" value="" style="edgeStyle=orthogonalEdgeStyle;rounded=0;orthogonalLoop=1;jettySize=auto;html=1;" edge="1" parent="1" source="8i0FlOgcaVSUHZOdmUGf-80" target="8i0FlOgcaVSUHZOdmUGf-75">
          <mxGeometry relative="1" as="geometry" />
        </mxCell>
        <mxCell id="8i0FlOgcaVSUHZOdmUGf-80" value="&lt;font style=&quot;font-size: 8px;&quot;&gt;Simpan ke Database:&lt;/font&gt;&lt;div&gt;&lt;font style=&quot;font-size: 8px;&quot;&gt;Table: users, guardian.&lt;/font&gt;&lt;/div&gt;" style="shape=cylinder3;whiteSpace=wrap;html=1;boundedLbl=1;backgroundOutline=1;size=15;" vertex="1" parent="1">
          <mxGeometry x="-470.11" y="1880" width="71.65" height="90" as="geometry" />
        </mxCell>
        <mxCell id="8i0FlOgcaVSUHZOdmUGf-81" value="" style="edgeStyle=orthogonalEdgeStyle;rounded=0;orthogonalLoop=1;jettySize=auto;html=1;" edge="1" parent="1" source="8i0FlOgcaVSUHZOdmUGf-82" target="8i0FlOgcaVSUHZOdmUGf-84">
          <mxGeometry relative="1" as="geometry" />
        </mxCell>
        <mxCell id="8i0FlOgcaVSUHZOdmUGf-82" value="&lt;font style=&quot;font-size: 8px;&quot;&gt;Ambil Token Dari&amp;nbsp;&lt;/font&gt;&lt;div&gt;&lt;font style=&quot;font-size: 8px;&quot;&gt;URL Parameter&lt;/font&gt;&lt;/div&gt;" style="shape=parallelogram;perimeter=parallelogramPerimeter;whiteSpace=wrap;html=1;fixedSize=1;" vertex="1" parent="1">
          <mxGeometry x="174.41000000000008" y="1410" width="120.48" height="30" as="geometry" />
        </mxCell>
        <mxCell id="8i0FlOgcaVSUHZOdmUGf-83" style="edgeStyle=orthogonalEdgeStyle;rounded=0;orthogonalLoop=1;jettySize=auto;html=1;exitX=0;exitY=0.5;exitDx=0;exitDy=0;entryX=0.5;entryY=0;entryDx=0;entryDy=0;" edge="1" parent="1" source="8i0FlOgcaVSUHZOdmUGf-84" target="8i0FlOgcaVSUHZOdmUGf-112">
          <mxGeometry relative="1" as="geometry" />
        </mxCell>
        <mxCell id="8i0FlOgcaVSUHZOdmUGf-84" value="&lt;font style=&quot;font-size: 8px;&quot;&gt;Token Ada?&lt;/font&gt;" style="rhombus;whiteSpace=wrap;html=1;" vertex="1" parent="1">
          <mxGeometry x="197.2100000000001" y="1490" width="74.87" height="70" as="geometry" />
        </mxCell>
        <mxCell id="8i0FlOgcaVSUHZOdmUGf-85" value="" style="edgeStyle=orthogonalEdgeStyle;rounded=0;orthogonalLoop=1;jettySize=auto;html=1;" edge="1" parent="1" source="8i0FlOgcaVSUHZOdmUGf-86" target="8i0FlOgcaVSUHZOdmUGf-89">
          <mxGeometry relative="1" as="geometry" />
        </mxCell>
        <mxCell id="8i0FlOgcaVSUHZOdmUGf-86" value="&lt;font style=&quot;font-size: 8px;&quot;&gt;Ambil dari Database:&lt;/font&gt;&lt;div&gt;&lt;font style=&quot;font-size: 8px;&quot;&gt;Table: users, tokens.&lt;/font&gt;&lt;/div&gt;" style="shape=cylinder3;whiteSpace=wrap;html=1;boundedLbl=1;backgroundOutline=1;size=15;" vertex="1" parent="1">
          <mxGeometry x="299.29" y="1565" width="71.65" height="90" as="geometry" />
        </mxCell>
        <mxCell id="8i0FlOgcaVSUHZOdmUGf-87" style="edgeStyle=orthogonalEdgeStyle;rounded=0;orthogonalLoop=1;jettySize=auto;html=1;exitX=1;exitY=0.5;exitDx=0;exitDy=0;entryX=0.5;entryY=0;entryDx=0;entryDy=0;entryPerimeter=0;" edge="1" parent="1" source="8i0FlOgcaVSUHZOdmUGf-84" target="8i0FlOgcaVSUHZOdmUGf-86">
          <mxGeometry relative="1" as="geometry" />
        </mxCell>
        <mxCell id="8i0FlOgcaVSUHZOdmUGf-88" style="edgeStyle=orthogonalEdgeStyle;rounded=0;orthogonalLoop=1;jettySize=auto;html=1;exitX=0;exitY=0.5;exitDx=0;exitDy=0;entryX=0.5;entryY=0;entryDx=0;entryDy=0;" edge="1" parent="1" source="8i0FlOgcaVSUHZOdmUGf-89" target="8i0FlOgcaVSUHZOdmUGf-91">
          <mxGeometry relative="1" as="geometry" />
        </mxCell>
        <mxCell id="8i0FlOgcaVSUHZOdmUGf-89" value="&lt;font style=&quot;font-size: 8px;&quot;&gt;Token Masih Berlaku?&lt;/font&gt;" style="rhombus;whiteSpace=wrap;html=1;" vertex="1" parent="1">
          <mxGeometry x="297.68000000000006" y="1700" width="74.87" height="70" as="geometry" />
        </mxCell>
        <mxCell id="8i0FlOgcaVSUHZOdmUGf-90" value="" style="edgeStyle=orthogonalEdgeStyle;rounded=0;orthogonalLoop=1;jettySize=auto;html=1;" edge="1" parent="1" source="8i0FlOgcaVSUHZOdmUGf-91" target="8i0FlOgcaVSUHZOdmUGf-100">
          <mxGeometry relative="1" as="geometry" />
        </mxCell>
        <mxCell id="8i0FlOgcaVSUHZOdmUGf-91" value="&lt;span style=&quot;font-size: 8px;&quot;&gt;Error: Token sudah kadaluwarsa&lt;/span&gt;" style="rounded=0;whiteSpace=wrap;html=1;" vertex="1" parent="1">
          <mxGeometry x="191.76000000000005" y="1794" width="97.09" height="30" as="geometry" />
        </mxCell>
        <mxCell id="8i0FlOgcaVSUHZOdmUGf-92" value="&lt;font style=&quot;font-size: 8px;&quot;&gt;Ya&lt;/font&gt;" style="text;html=1;align=center;verticalAlign=middle;whiteSpace=wrap;rounded=0;" vertex="1" parent="1">
          <mxGeometry x="283.18" y="1500" width="40" height="20" as="geometry" />
        </mxCell>
        <mxCell id="8i0FlOgcaVSUHZOdmUGf-93" value="&lt;font style=&quot;font-size: 8px;&quot;&gt;Tidak&lt;/font&gt;" style="text;html=1;align=center;verticalAlign=middle;whiteSpace=wrap;rounded=0;" vertex="1" parent="1">
          <mxGeometry x="257.11" y="1710" width="40" height="20" as="geometry" />
        </mxCell>
        <mxCell id="8i0FlOgcaVSUHZOdmUGf-94" value="&lt;span style=&quot;font-size: 8px;&quot;&gt;Ya&lt;/span&gt;" style="text;html=1;align=center;verticalAlign=middle;whiteSpace=wrap;rounded=0;" vertex="1" parent="1">
          <mxGeometry x="157.20999999999998" y="1950" width="40" height="20" as="geometry" />
        </mxCell>
        <mxCell id="8i0FlOgcaVSUHZOdmUGf-95" value="" style="edgeStyle=orthogonalEdgeStyle;rounded=0;orthogonalLoop=1;jettySize=auto;html=1;" edge="1" parent="1" source="8i0FlOgcaVSUHZOdmUGf-97" target="8i0FlOgcaVSUHZOdmUGf-103">
          <mxGeometry relative="1" as="geometry" />
        </mxCell>
        <mxCell id="8i0FlOgcaVSUHZOdmUGf-96" value="" style="edgeStyle=orthogonalEdgeStyle;rounded=0;orthogonalLoop=1;jettySize=auto;html=1;" edge="1" parent="1" source="8i0FlOgcaVSUHZOdmUGf-97" target="8i0FlOgcaVSUHZOdmUGf-98">
          <mxGeometry relative="1" as="geometry" />
        </mxCell>
        <mxCell id="8i0FlOgcaVSUHZOdmUGf-97" value="&lt;span style=&quot;font-size: 8px;&quot;&gt;User Sudah&lt;/span&gt;&lt;div&gt;&lt;span style=&quot;font-size: 8px;&quot;&gt;Terverifikasi&lt;/span&gt;&lt;/div&gt;" style="rhombus;whiteSpace=wrap;html=1;" vertex="1" parent="1">
          <mxGeometry x="203.0800000000001" y="1940" width="74.87" height="70" as="geometry" />
        </mxCell>
        <mxCell id="8i0FlOgcaVSUHZOdmUGf-98" value="&lt;font style=&quot;font-size: 8px;&quot;&gt;Kirim Email Verifikasi&lt;/font&gt;" style="strokeWidth=2;html=1;shape=mxgraph.flowchart.document2;whiteSpace=wrap;size=0.25;" vertex="1" parent="1">
          <mxGeometry x="191.76" y="2060" width="97.5" height="30" as="geometry" />
        </mxCell>
        <mxCell id="8i0FlOgcaVSUHZOdmUGf-99" value="" style="edgeStyle=orthogonalEdgeStyle;rounded=0;orthogonalLoop=1;jettySize=auto;html=1;" edge="1" parent="1" source="8i0FlOgcaVSUHZOdmUGf-100" target="8i0FlOgcaVSUHZOdmUGf-97">
          <mxGeometry relative="1" as="geometry" />
        </mxCell>
        <mxCell id="8i0FlOgcaVSUHZOdmUGf-100" value="&lt;font style=&quot;font-size: 8px;&quot;&gt;User Klik&amp;nbsp;&lt;/font&gt;&lt;span style=&quot;font-size: 8px; background-color: transparent; color: light-dark(rgb(0, 0, 0), rgb(255, 255, 255));&quot;&gt;Kirim Ulang&lt;/span&gt;" style="rounded=0;whiteSpace=wrap;html=1;" vertex="1" parent="1">
          <mxGeometry x="191.76000000000005" y="1870" width="97.09" height="30" as="geometry" />
        </mxCell>
        <mxCell id="8i0FlOgcaVSUHZOdmUGf-101" value="" style="edgeStyle=orthogonalEdgeStyle;rounded=0;orthogonalLoop=1;jettySize=auto;html=1;" edge="1" parent="1" source="8i0FlOgcaVSUHZOdmUGf-102" target="8i0FlOgcaVSUHZOdmUGf-110">
          <mxGeometry relative="1" as="geometry" />
        </mxCell>
        <mxCell id="8i0FlOgcaVSUHZOdmUGf-102" value="&lt;font style=&quot;font-size: 8px;&quot;&gt;Update Database:&lt;/font&gt;&lt;div&gt;&lt;font style=&quot;font-size: 8px;&quot;&gt;Table: users: status, email_verified.&lt;/font&gt;&lt;/div&gt;" style="shape=cylinder3;whiteSpace=wrap;html=1;boundedLbl=1;backgroundOutline=1;size=15;" vertex="1" parent="1">
          <mxGeometry x="299.29" y="2170" width="71.65" height="90" as="geometry" />
        </mxCell>
        <mxCell id="8i0FlOgcaVSUHZOdmUGf-103" value="&lt;span style=&quot;font-size: 8px;&quot;&gt;Error: User sudah terverifikasi&lt;/span&gt;" style="rounded=0;whiteSpace=wrap;html=1;" vertex="1" parent="1">
          <mxGeometry x="50.00000000000006" y="2310" width="97.09" height="30" as="geometry" />
        </mxCell>
        <mxCell id="8i0FlOgcaVSUHZOdmUGf-104" value="&lt;font style=&quot;font-size: 10px;&quot;&gt;Selesai&lt;/font&gt;" style="strokeWidth=2;html=1;shape=mxgraph.flowchart.terminator;whiteSpace=wrap;" vertex="1" parent="1">
          <mxGeometry x="712.8199999999999" y="2420" width="52.5" height="30" as="geometry" />
        </mxCell>
        <mxCell id="8i0FlOgcaVSUHZOdmUGf-105" style="edgeStyle=orthogonalEdgeStyle;rounded=0;orthogonalLoop=1;jettySize=auto;html=1;exitX=0.5;exitY=1;exitDx=0;exitDy=0;entryX=0.5;entryY=1;entryDx=0;entryDy=0;entryPerimeter=0;" edge="1" parent="1" source="8i0FlOgcaVSUHZOdmUGf-76" target="8i0FlOgcaVSUHZOdmUGf-104">
          <mxGeometry relative="1" as="geometry">
            <mxPoint x="670" y="2440" as="targetPoint" />
            <Array as="points">
              <mxPoint x="-434" y="2470" />
              <mxPoint x="740" y="2470" />
              <mxPoint x="740" y="2450" />
            </Array>
          </mxGeometry>
        </mxCell>
        <mxCell id="8i0FlOgcaVSUHZOdmUGf-106" style="edgeStyle=orthogonalEdgeStyle;rounded=0;orthogonalLoop=1;jettySize=auto;html=1;exitX=0.5;exitY=1;exitDx=0;exitDy=0;entryX=0.5;entryY=0;entryDx=0;entryDy=0;entryPerimeter=0;" edge="1" parent="1" source="8i0FlOgcaVSUHZOdmUGf-89" target="8i0FlOgcaVSUHZOdmUGf-102">
          <mxGeometry relative="1" as="geometry" />
        </mxCell>
        <mxCell id="8i0FlOgcaVSUHZOdmUGf-107" value="&lt;font style=&quot;font-size: 8px;&quot;&gt;Tidak&lt;/font&gt;" style="text;html=1;align=center;verticalAlign=middle;whiteSpace=wrap;rounded=0;" vertex="1" parent="1">
          <mxGeometry x="197.73000000000002" y="2020" width="40" height="20" as="geometry" />
        </mxCell>
        <mxCell id="8i0FlOgcaVSUHZOdmUGf-108" style="edgeStyle=orthogonalEdgeStyle;rounded=0;orthogonalLoop=1;jettySize=auto;html=1;exitX=0.5;exitY=1;exitDx=0;exitDy=0;entryX=0;entryY=0.5;entryDx=0;entryDy=0;entryPerimeter=0;" edge="1" parent="1" source="8i0FlOgcaVSUHZOdmUGf-103" target="8i0FlOgcaVSUHZOdmUGf-104">
          <mxGeometry relative="1" as="geometry">
            <Array as="points">
              <mxPoint x="99" y="2435" />
            </Array>
          </mxGeometry>
        </mxCell>
        <mxCell id="8i0FlOgcaVSUHZOdmUGf-109" style="edgeStyle=orthogonalEdgeStyle;rounded=0;orthogonalLoop=1;jettySize=auto;html=1;entryX=0;entryY=0;entryDx=0;entryDy=15;entryPerimeter=0;exitX=0.495;exitY=1;exitDx=0;exitDy=0;exitPerimeter=0;" edge="1" parent="1" source="8i0FlOgcaVSUHZOdmUGf-98" target="8i0FlOgcaVSUHZOdmUGf-102">
          <mxGeometry relative="1" as="geometry" />
        </mxCell>
        <mxCell id="8i0FlOgcaVSUHZOdmUGf-110" value="&lt;span style=&quot;font-size: 8px;&quot;&gt;Success: Email Berhasil Terverifikasi&lt;/span&gt;" style="rounded=0;whiteSpace=wrap;html=1;" vertex="1" parent="1">
          <mxGeometry x="286.57000000000005" y="2310" width="97.09" height="30" as="geometry" />
        </mxCell>
        <mxCell id="8i0FlOgcaVSUHZOdmUGf-111" style="edgeStyle=orthogonalEdgeStyle;rounded=0;orthogonalLoop=1;jettySize=auto;html=1;entryX=0.11;entryY=0.11;entryDx=0;entryDy=0;entryPerimeter=0;exitX=0.5;exitY=1;exitDx=0;exitDy=0;" edge="1" parent="1" source="8i0FlOgcaVSUHZOdmUGf-110" target="8i0FlOgcaVSUHZOdmUGf-104">
          <mxGeometry relative="1" as="geometry">
            <Array as="points">
              <mxPoint x="335" y="2423" />
              <mxPoint x="680" y="2423" />
            </Array>
          </mxGeometry>
        </mxCell>
        <mxCell id="8i0FlOgcaVSUHZOdmUGf-112" value="&lt;span style=&quot;font-size: 8px;&quot;&gt;Error: Token tidak valid&lt;/span&gt;" style="rounded=0;whiteSpace=wrap;html=1;" vertex="1" parent="1">
          <mxGeometry x="-79.99999999999994" y="2310" width="97.09" height="30" as="geometry" />
        </mxCell>
        <mxCell id="8i0FlOgcaVSUHZOdmUGf-113" style="edgeStyle=orthogonalEdgeStyle;rounded=0;orthogonalLoop=1;jettySize=auto;html=1;exitX=0.5;exitY=1;exitDx=0;exitDy=0;entryX=0.11;entryY=0.89;entryDx=0;entryDy=0;entryPerimeter=0;" edge="1" parent="1" source="8i0FlOgcaVSUHZOdmUGf-112" target="8i0FlOgcaVSUHZOdmUGf-104">
          <mxGeometry relative="1" as="geometry">
            <Array as="points">
              <mxPoint x="-31" y="2460" />
              <mxPoint x="719" y="2460" />
            </Array>
          </mxGeometry>
        </mxCell>
        <mxCell id="8i0FlOgcaVSUHZOdmUGf-114" style="edgeStyle=orthogonalEdgeStyle;rounded=0;orthogonalLoop=1;jettySize=auto;html=1;exitX=0;exitY=0.5;exitDx=0;exitDy=0;entryX=0.5;entryY=0;entryDx=0;entryDy=0;" edge="1" parent="1" source="8i0FlOgcaVSUHZOdmUGf-115" target="8i0FlOgcaVSUHZOdmUGf-118">
          <mxGeometry relative="1" as="geometry" />
        </mxCell>
        <mxCell id="8i0FlOgcaVSUHZOdmUGf-115" value="&lt;span style=&quot;font-size: 8px;&quot;&gt;Input Data Login&lt;/span&gt;" style="shape=parallelogram;perimeter=parallelogramPerimeter;whiteSpace=wrap;html=1;fixedSize=1;" vertex="1" parent="1">
          <mxGeometry x="700.84" y="1410" width="120.48" height="30" as="geometry" />
        </mxCell>
        <mxCell id="8i0FlOgcaVSUHZOdmUGf-116" value="" style="edgeStyle=orthogonalEdgeStyle;rounded=0;orthogonalLoop=1;jettySize=auto;html=1;" edge="1" parent="1" source="8i0FlOgcaVSUHZOdmUGf-118" target="8i0FlOgcaVSUHZOdmUGf-121">
          <mxGeometry relative="1" as="geometry" />
        </mxCell>
        <mxCell id="8i0FlOgcaVSUHZOdmUGf-117" style="edgeStyle=orthogonalEdgeStyle;rounded=0;orthogonalLoop=1;jettySize=auto;html=1;exitX=1;exitY=0.5;exitDx=0;exitDy=0;entryX=0.5;entryY=0;entryDx=0;entryDy=0;" edge="1" parent="1" source="8i0FlOgcaVSUHZOdmUGf-118" target="8i0FlOgcaVSUHZOdmUGf-123">
          <mxGeometry relative="1" as="geometry" />
        </mxCell>
        <mxCell id="8i0FlOgcaVSUHZOdmUGf-118" value="&lt;font style=&quot;font-size: 8px;&quot;&gt;Validasi Input&lt;/font&gt;" style="rhombus;whiteSpace=wrap;html=1;" vertex="1" parent="1">
          <mxGeometry x="480.0000000000001" y="1450" width="74.87" height="70" as="geometry" />
        </mxCell>
        <mxCell id="8i0FlOgcaVSUHZOdmUGf-119" value="&lt;font style=&quot;font-size: 8px;&quot;&gt;Kosong&lt;/font&gt;" style="text;html=1;align=center;verticalAlign=middle;whiteSpace=wrap;rounded=0;" vertex="1" parent="1">
          <mxGeometry x="467.26" y="1530" width="40" height="20" as="geometry" />
        </mxCell>
        <mxCell id="8i0FlOgcaVSUHZOdmUGf-120" style="edgeStyle=orthogonalEdgeStyle;rounded=0;orthogonalLoop=1;jettySize=auto;html=1;entryX=1;entryY=0.5;entryDx=0;entryDy=0;" edge="1" parent="1" source="8i0FlOgcaVSUHZOdmUGf-121" target="8i0FlOgcaVSUHZOdmUGf-115">
          <mxGeometry relative="1" as="geometry">
            <Array as="points">
              <mxPoint x="1050" y="1585" />
              <mxPoint x="1050" y="1425" />
            </Array>
          </mxGeometry>
        </mxCell>
        <mxCell id="8i0FlOgcaVSUHZOdmUGf-121" value="&lt;span style=&quot;font-size: 8px;&quot;&gt;Error: Field tidak boleh kosong&lt;/span&gt;" style="rounded=0;whiteSpace=wrap;html=1;" vertex="1" parent="1">
          <mxGeometry x="468.89000000000004" y="1570" width="97.09" height="30" as="geometry" />
        </mxCell>
        <mxCell id="8i0FlOgcaVSUHZOdmUGf-122" value="" style="edgeStyle=orthogonalEdgeStyle;rounded=0;orthogonalLoop=1;jettySize=auto;html=1;" edge="1" parent="1" source="8i0FlOgcaVSUHZOdmUGf-123" target="8i0FlOgcaVSUHZOdmUGf-125">
          <mxGeometry relative="1" as="geometry" />
        </mxCell>
        <mxCell id="8i0FlOgcaVSUHZOdmUGf-123" value="&lt;font style=&quot;font-size: 8px;&quot;&gt;Cek Database:&lt;/font&gt;&lt;div&gt;&lt;span style=&quot;font-size: 8px;&quot;&gt;username/email&lt;/span&gt;&lt;/div&gt;&lt;div&gt;&lt;span style=&quot;font-size: 8px;&quot;&gt;sudah ada?&lt;/span&gt;&lt;/div&gt;" style="rhombus;whiteSpace=wrap;html=1;" vertex="1" parent="1">
          <mxGeometry x="620" y="1530" width="85.57" height="80" as="geometry" />
        </mxCell>
        <mxCell id="8i0FlOgcaVSUHZOdmUGf-124" style="edgeStyle=orthogonalEdgeStyle;rounded=0;orthogonalLoop=1;jettySize=auto;html=1;entryX=1;entryY=0.75;entryDx=0;entryDy=0;" edge="1" parent="1" source="8i0FlOgcaVSUHZOdmUGf-125" target="8i0FlOgcaVSUHZOdmUGf-115">
          <mxGeometry relative="1" as="geometry">
            <Array as="points">
              <mxPoint x="1030" y="1675" />
              <mxPoint x="1030" y="1430" />
              <mxPoint x="830" y="1430" />
            </Array>
          </mxGeometry>
        </mxCell>
        <mxCell id="8i0FlOgcaVSUHZOdmUGf-125" value="&lt;span style=&quot;font-size: 8px;&quot;&gt;Error: Username/email sudah digunakan&lt;/span&gt;" style="rounded=0;whiteSpace=wrap;html=1;" vertex="1" parent="1">
          <mxGeometry x="614.2400000000001" y="1660" width="97.09" height="30" as="geometry" />
        </mxCell>
        <mxCell id="8i0FlOgcaVSUHZOdmUGf-126" value="" style="edgeStyle=orthogonalEdgeStyle;rounded=0;orthogonalLoop=1;jettySize=auto;html=1;" edge="1" parent="1" source="8i0FlOgcaVSUHZOdmUGf-127" target="8i0FlOgcaVSUHZOdmUGf-131">
          <mxGeometry relative="1" as="geometry" />
        </mxCell>
        <mxCell id="8i0FlOgcaVSUHZOdmUGf-127" value="&lt;font style=&quot;font-size: 8px;&quot;&gt;Ambil dari Database:&lt;/font&gt;&lt;div&gt;&lt;font style=&quot;font-size: 8px;&quot;&gt;Table: users.&lt;/font&gt;&lt;/div&gt;" style="shape=cylinder3;whiteSpace=wrap;html=1;boundedLbl=1;backgroundOutline=1;size=15;" vertex="1" parent="1">
          <mxGeometry x="749.6700000000001" y="1630" width="71.65" height="90" as="geometry" />
        </mxCell>
        <mxCell id="8i0FlOgcaVSUHZOdmUGf-128" style="edgeStyle=orthogonalEdgeStyle;rounded=0;orthogonalLoop=1;jettySize=auto;html=1;entryX=0.5;entryY=0;entryDx=0;entryDy=0;entryPerimeter=0;" edge="1" parent="1" source="8i0FlOgcaVSUHZOdmUGf-123" target="8i0FlOgcaVSUHZOdmUGf-127">
          <mxGeometry relative="1" as="geometry" />
        </mxCell>
        <mxCell id="8i0FlOgcaVSUHZOdmUGf-129" style="edgeStyle=orthogonalEdgeStyle;rounded=0;orthogonalLoop=1;jettySize=auto;html=1;exitX=0;exitY=0.5;exitDx=0;exitDy=0;entryX=0.5;entryY=0;entryDx=0;entryDy=0;" edge="1" parent="1" source="8i0FlOgcaVSUHZOdmUGf-131" target="8i0FlOgcaVSUHZOdmUGf-132">
          <mxGeometry relative="1" as="geometry" />
        </mxCell>
        <mxCell id="8i0FlOgcaVSUHZOdmUGf-130" value="" style="edgeStyle=orthogonalEdgeStyle;rounded=0;orthogonalLoop=1;jettySize=auto;html=1;" edge="1" parent="1" source="8i0FlOgcaVSUHZOdmUGf-131" target="8i0FlOgcaVSUHZOdmUGf-135">
          <mxGeometry relative="1" as="geometry" />
        </mxCell>
        <mxCell id="8i0FlOgcaVSUHZOdmUGf-131" value="&lt;span style=&quot;font-size: 8px;&quot;&gt;User Sudah&lt;/span&gt;&lt;div&gt;&lt;span style=&quot;font-size: 8px;&quot;&gt;Terverifikasi&lt;/span&gt;&lt;/div&gt;" style="rhombus;whiteSpace=wrap;html=1;" vertex="1" parent="1">
          <mxGeometry x="748.0600000000002" y="1770" width="74.87" height="70" as="geometry" />
        </mxCell>
        <mxCell id="8i0FlOgcaVSUHZOdmUGf-132" value="&lt;span style=&quot;font-size: 8px;&quot;&gt;Error: Akun belum terverifikasi&lt;/span&gt;" style="rounded=0;whiteSpace=wrap;html=1;" vertex="1" parent="1">
          <mxGeometry x="565.98" y="2310" width="97.09" height="30" as="geometry" />
        </mxCell>
        <mxCell id="8i0FlOgcaVSUHZOdmUGf-133" value="&lt;font style=&quot;font-size: 8px;&quot;&gt;Tidak&lt;/font&gt;" style="text;html=1;align=center;verticalAlign=middle;whiteSpace=wrap;rounded=0;" vertex="1" parent="1">
          <mxGeometry x="660.84" y="1780" width="40" height="20" as="geometry" />
        </mxCell>
        <mxCell id="8i0FlOgcaVSUHZOdmUGf-134" value="&lt;span style=&quot;font-size: 8px;&quot;&gt;Ya&lt;/span&gt;" style="text;html=1;align=center;verticalAlign=middle;whiteSpace=wrap;rounded=0;" vertex="1" parent="1">
          <mxGeometry x="798.84" y="1860" width="40" height="20" as="geometry" />
        </mxCell>
        <mxCell id="8i0FlOgcaVSUHZOdmUGf-135" value="&lt;span style=&quot;font-size: 8px;&quot;&gt;Bandingkan&amp;nbsp;&lt;/span&gt;&lt;div&gt;&lt;span style=&quot;font-size: 8px;&quot;&gt;Input Password dengan password di Database&lt;/span&gt;&lt;/div&gt;" style="rhombus;whiteSpace=wrap;html=1;" vertex="1" parent="1">
          <mxGeometry x="715.97" y="1900" width="139.06" height="130" as="geometry" />
        </mxCell>
      </root>
    </mxGraphModel>
  </diagram>
  <diagram name="OrangTua" id="zIHwf9fTKfeuOGKTxyuC">
    <mxGraphModel grid="1" page="1" gridSize="10" guides="1" tooltips="1" connect="1" arrows="1" fold="1" pageScale="1" pageWidth="827" pageHeight="1169" math="0" shadow="0">
      <root>
        <mxCell id="0" />
        <mxCell id="1" parent="0" />
        <mxCell id="fZucu8aOnXHfT2xTSUfB-1" style="edgeStyle=orthogonalEdgeStyle;rounded=0;orthogonalLoop=1;jettySize=auto;html=1;entryX=0.5;entryY=0;entryDx=0;entryDy=0;" edge="1" parent="1" source="6ZHvlvwYwgjn5gXmLmYF-1" target="yRWfcQYcQTy9WUW5AK1--1">
          <mxGeometry relative="1" as="geometry" />
        </mxCell>
        <mxCell id="6ZHvlvwYwgjn5gXmLmYF-1" value="Mulai" style="rounded=1;whiteSpace=wrap;html=1;arcSize=50;" vertex="1" parent="1">
          <mxGeometry x="140" width="120" height="40" as="geometry" />
        </mxCell>
        <mxCell id="QtNg5M2Z9A1AdDdDtE6N-2" style="edgeStyle=orthogonalEdgeStyle;rounded=0;orthogonalLoop=1;jettySize=auto;html=1;entryX=0.5;entryY=1;entryDx=0;entryDy=0;" edge="1" parent="1" source="yRWfcQYcQTy9WUW5AK1--1" target="QtNg5M2Z9A1AdDdDtE6N-1">
          <mxGeometry relative="1" as="geometry" />
        </mxCell>
        <mxCell id="yRWfcQYcQTy9WUW5AK1--1" value="Orangtua Melakukan Pendaftaran" style="rounded=0;whiteSpace=wrap;html=1;" vertex="1" parent="1">
          <mxGeometry x="140" y="80" width="120" height="60" as="geometry" />
        </mxCell>
        <mxCell id="pmFHdkeXP9tr89fHex5n-1" value="Dilakukan Observasi" style="rounded=0;whiteSpace=wrap;html=1;" vertex="1" parent="1">
          <mxGeometry x="140" y="280" width="120" height="60" as="geometry" />
        </mxCell>
        <mxCell id="jA6vn9yPYeSj5O-4UUVp-3" style="edgeStyle=orthogonalEdgeStyle;rounded=0;orthogonalLoop=1;jettySize=auto;html=1;entryX=0.5;entryY=0;entryDx=0;entryDy=0;" edge="1" parent="1" source="pmFHdkeXP9tr89fHex5n-3" target="jA6vn9yPYeSj5O-4UUVp-2">
          <mxGeometry relative="1" as="geometry" />
        </mxCell>
        <mxCell id="fkKQD4wuOQVCTA4Yz3H4-3" style="edgeStyle=orthogonalEdgeStyle;rounded=0;orthogonalLoop=1;jettySize=auto;html=1;entryX=0.5;entryY=0;entryDx=0;entryDy=0;exitX=1;exitY=0.5;exitDx=0;exitDy=0;" edge="1" parent="1" source="pmFHdkeXP9tr89fHex5n-3" target="fkKQD4wuOQVCTA4Yz3H4-1">
          <mxGeometry relative="1" as="geometry" />
        </mxCell>
        <mxCell id="pmFHdkeXP9tr89fHex5n-3" value="Perlu Tindak&lt;div&gt;Lanjut?&lt;/div&gt;" style="rhombus;whiteSpace=wrap;html=1;" vertex="1" parent="1">
          <mxGeometry x="140" y="380" width="120" height="120" as="geometry" />
        </mxCell>
        <mxCell id="jA6vn9yPYeSj5O-4UUVp-1" style="edgeStyle=orthogonalEdgeStyle;rounded=0;orthogonalLoop=1;jettySize=auto;html=1;entryX=0.5;entryY=0;entryDx=0;entryDy=0;" edge="1" parent="1" source="pmFHdkeXP9tr89fHex5n-1" target="pmFHdkeXP9tr89fHex5n-3">
          <mxGeometry relative="1" as="geometry" />
        </mxCell>
        <mxCell id="jA6vn9yPYeSj5O-4UUVp-2" value="Selesai" style="rounded=1;whiteSpace=wrap;html=1;arcSize=50;" vertex="1" parent="1">
          <mxGeometry y="500" width="120" height="40" as="geometry" />
        </mxCell>
        <mxCell id="jA6vn9yPYeSj5O-4UUVp-4" value="Tidak" style="text;html=1;align=center;verticalAlign=middle;whiteSpace=wrap;rounded=0;" vertex="1" parent="1">
          <mxGeometry x="70" y="410" width="60" height="30" as="geometry" />
        </mxCell>
        <mxCell id="fkKQD4wuOQVCTA4Yz3H4-7" style="edgeStyle=orthogonalEdgeStyle;rounded=0;orthogonalLoop=1;jettySize=auto;html=1;entryX=0.5;entryY=0;entryDx=0;entryDy=0;" edge="1" parent="1" source="fkKQD4wuOQVCTA4Yz3H4-1" target="fkKQD4wuOQVCTA4Yz3H4-6">
          <mxGeometry relative="1" as="geometry" />
        </mxCell>
        <mxCell id="FTrDiHnEvAw1m-pqjleI-2" style="edgeStyle=orthogonalEdgeStyle;rounded=0;orthogonalLoop=1;jettySize=auto;html=1;entryX=0.5;entryY=0;entryDx=0;entryDy=0;exitX=1;exitY=0.5;exitDx=0;exitDy=0;" edge="1" parent="1" source="fkKQD4wuOQVCTA4Yz3H4-1" target="FTrDiHnEvAw1m-pqjleI-1">
          <mxGeometry relative="1" as="geometry" />
        </mxCell>
        <mxCell id="fkKQD4wuOQVCTA4Yz3H4-1" value="Apakah Orangtua Setuju?" style="rhombus;whiteSpace=wrap;html=1;" vertex="1" parent="1">
          <mxGeometry x="260" y="500" width="120" height="120" as="geometry" />
        </mxCell>
        <mxCell id="fkKQD4wuOQVCTA4Yz3H4-4" value="Ya" style="text;html=1;align=center;verticalAlign=middle;whiteSpace=wrap;rounded=0;" vertex="1" parent="1">
          <mxGeometry x="260" y="410" width="60" height="30" as="geometry" />
        </mxCell>
        <mxCell id="fkKQD4wuOQVCTA4Yz3H4-6" value="Selesai" style="rounded=1;whiteSpace=wrap;html=1;arcSize=50;" vertex="1" parent="1">
          <mxGeometry x="120" y="620" width="120" height="40" as="geometry" />
        </mxCell>
        <mxCell id="fkKQD4wuOQVCTA4Yz3H4-8" value="Tidak" style="text;html=1;align=center;verticalAlign=middle;whiteSpace=wrap;rounded=0;" vertex="1" parent="1">
          <mxGeometry x="190" y="529" width="60" height="30" as="geometry" />
        </mxCell>
        <mxCell id="FBNrBWAHhTBDi3hzNl8Y-2" style="edgeStyle=orthogonalEdgeStyle;rounded=0;orthogonalLoop=1;jettySize=auto;html=1;" edge="1" parent="1" source="FTrDiHnEvAw1m-pqjleI-1" target="FBNrBWAHhTBDi3hzNl8Y-1">
          <mxGeometry relative="1" as="geometry" />
        </mxCell>
        <mxCell id="FTrDiHnEvAw1m-pqjleI-1" value="Melakukan Registrasi Akun" style="rounded=0;whiteSpace=wrap;html=1;" vertex="1" parent="1">
          <mxGeometry x="380" y="610" width="120" height="60" as="geometry" />
        </mxCell>
        <mxCell id="gFEi8XebIPTuiBJmf_gP-1" value="Ya" style="text;html=1;align=center;verticalAlign=middle;whiteSpace=wrap;rounded=0;" vertex="1" parent="1">
          <mxGeometry x="380" y="529" width="60" height="30" as="geometry" />
        </mxCell>
        <mxCell id="QtNg5M2Z9A1AdDdDtE6N-3" style="edgeStyle=orthogonalEdgeStyle;rounded=0;orthogonalLoop=1;jettySize=auto;html=1;entryX=0.5;entryY=0;entryDx=0;entryDy=0;" edge="1" parent="1" source="QtNg5M2Z9A1AdDdDtE6N-1" target="pmFHdkeXP9tr89fHex5n-1">
          <mxGeometry relative="1" as="geometry" />
        </mxCell>
        <mxCell id="QtNg5M2Z9A1AdDdDtE6N-1" value="Konfirmasi Jadwal Observasi" style="shape=trapezoid;perimeter=trapezoidPerimeter;whiteSpace=wrap;html=1;fixedSize=1;direction=west;" vertex="1" parent="1">
          <mxGeometry x="140" y="180" width="120" height="60" as="geometry" />
        </mxCell>
        <mxCell id="0qVCGI8f0xD-nkEE0num-3" style="edgeStyle=orthogonalEdgeStyle;rounded=0;orthogonalLoop=1;jettySize=auto;html=1;" edge="1" parent="1" source="FBNrBWAHhTBDi3hzNl8Y-1" target="0qVCGI8f0xD-nkEE0num-2">
          <mxGeometry relative="1" as="geometry" />
        </mxCell>
        <mxCell id="FBNrBWAHhTBDi3hzNl8Y-1" value="Masuk Kedalam Aplikasi" style="rounded=0;whiteSpace=wrap;html=1;" vertex="1" parent="1">
          <mxGeometry x="380" y="720" width="120" height="60" as="geometry" />
        </mxCell>
        <mxCell id="pAvDzqBNLTob1qje1f05-2" style="edgeStyle=orthogonalEdgeStyle;rounded=0;orthogonalLoop=1;jettySize=auto;html=1;entryX=0.5;entryY=0;entryDx=0;entryDy=0;" edge="1" parent="1" source="0qVCGI8f0xD-nkEE0num-2" target="pAvDzqBNLTob1qje1f05-5">
          <mxGeometry relative="1" as="geometry">
            <mxPoint x="304" y="950" as="targetPoint" />
          </mxGeometry>
        </mxCell>
        <mxCell id="pAvDzqBNLTob1qje1f05-4" style="edgeStyle=orthogonalEdgeStyle;rounded=0;orthogonalLoop=1;jettySize=auto;html=1;entryX=0.5;entryY=0;entryDx=0;entryDy=0;" edge="1" parent="1" source="0qVCGI8f0xD-nkEE0num-2" target="pAvDzqBNLTob1qje1f05-3">
          <mxGeometry relative="1" as="geometry" />
        </mxCell>
        <mxCell id="pAvDzqBNLTob1qje1f05-7" style="edgeStyle=orthogonalEdgeStyle;rounded=0;orthogonalLoop=1;jettySize=auto;html=1;entryX=0.5;entryY=0;entryDx=0;entryDy=0;" edge="1" parent="1" source="0qVCGI8f0xD-nkEE0num-2" target="pAvDzqBNLTob1qje1f05-6">
          <mxGeometry relative="1" as="geometry" />
        </mxCell>
        <mxCell id="0qVCGI8f0xD-nkEE0num-2" value="Menu Fitur" style="rhombus;whiteSpace=wrap;html=1;" vertex="1" parent="1">
          <mxGeometry x="380" y="830" width="120" height="120" as="geometry" />
        </mxCell>
        <mxCell id="eW-R5iicQMV0fVVOpjZG-2" style="edgeStyle=orthogonalEdgeStyle;rounded=0;orthogonalLoop=1;jettySize=auto;html=1;entryX=0.5;entryY=0;entryDx=0;entryDy=0;" edge="1" parent="1" source="pAvDzqBNLTob1qje1f05-3" target="eW-R5iicQMV0fVVOpjZG-1">
          <mxGeometry relative="1" as="geometry" />
        </mxCell>
        <mxCell id="pAvDzqBNLTob1qje1f05-3" value="Melihat Laporan&lt;div&gt;Harian / Miggguan&lt;/div&gt;" style="shape=parallelogram;perimeter=parallelogramPerimeter;whiteSpace=wrap;html=1;fixedSize=1;" vertex="1" parent="1">
          <mxGeometry x="365" y="1000" width="150" height="60" as="geometry" />
        </mxCell>
        <mxCell id="eW-R5iicQMV0fVVOpjZG-4" style="edgeStyle=orthogonalEdgeStyle;rounded=0;orthogonalLoop=1;jettySize=auto;html=1;exitX=0.5;exitY=1;exitDx=0;exitDy=0;entryX=0;entryY=0.5;entryDx=0;entryDy=0;" edge="1" parent="1" source="pAvDzqBNLTob1qje1f05-5" target="eW-R5iicQMV0fVVOpjZG-1">
          <mxGeometry relative="1" as="geometry" />
        </mxCell>
        <mxCell id="pAvDzqBNLTob1qje1f05-5" value="Melihat Jadwal&lt;div&gt;Sesi Terapi&lt;/div&gt;" style="shape=parallelogram;perimeter=parallelogramPerimeter;whiteSpace=wrap;html=1;fixedSize=1;" vertex="1" parent="1">
          <mxGeometry x="215" y="940" width="150" height="60" as="geometry" />
        </mxCell>
        <mxCell id="eW-R5iicQMV0fVVOpjZG-3" style="edgeStyle=orthogonalEdgeStyle;rounded=0;orthogonalLoop=1;jettySize=auto;html=1;entryX=1;entryY=0.5;entryDx=0;entryDy=0;exitX=0.5;exitY=1;exitDx=0;exitDy=0;" edge="1" parent="1" source="pAvDzqBNLTob1qje1f05-6" target="eW-R5iicQMV0fVVOpjZG-1">
          <mxGeometry relative="1" as="geometry" />
        </mxCell>
        <mxCell id="pAvDzqBNLTob1qje1f05-6" value="Melihat Laporan Pembayaran" style="shape=parallelogram;perimeter=parallelogramPerimeter;whiteSpace=wrap;html=1;fixedSize=1;" vertex="1" parent="1">
          <mxGeometry x="520" y="940" width="150" height="60" as="geometry" />
        </mxCell>
        <mxCell id="eW-R5iicQMV0fVVOpjZG-1" value="A" style="ellipse;whiteSpace=wrap;html=1;aspect=fixed;" vertex="1" parent="1">
          <mxGeometry x="410" y="1100" width="60" height="60" as="geometry" />
        </mxCell>
        <mxCell id="eW-R5iicQMV0fVVOpjZG-9" style="edgeStyle=orthogonalEdgeStyle;rounded=0;orthogonalLoop=1;jettySize=auto;html=1;exitX=0.5;exitY=1;exitDx=0;exitDy=0;entryX=0.5;entryY=1;entryDx=0;entryDy=0;" edge="1" parent="1" source="eW-R5iicQMV0fVVOpjZG-5" target="eW-R5iicQMV0fVVOpjZG-8">
          <mxGeometry relative="1" as="geometry" />
        </mxCell>
        <mxCell id="eW-R5iicQMV0fVVOpjZG-5" value="B" style="ellipse;whiteSpace=wrap;html=1;aspect=fixed;" vertex="1" parent="1">
          <mxGeometry x="940" y="10" width="60" height="60" as="geometry" />
        </mxCell>
        <mxCell id="eW-R5iicQMV0fVVOpjZG-12" style="edgeStyle=orthogonalEdgeStyle;rounded=0;orthogonalLoop=1;jettySize=auto;html=1;exitX=0.5;exitY=0;exitDx=0;exitDy=0;entryX=0.5;entryY=0;entryDx=0;entryDy=0;" edge="1" parent="1" source="eW-R5iicQMV0fVVOpjZG-8" target="eW-R5iicQMV0fVVOpjZG-10">
          <mxGeometry relative="1" as="geometry" />
        </mxCell>
        <mxCell id="eW-R5iicQMV0fVVOpjZG-8" value="Orangtua Datang&lt;div&gt;dan Mengisi Absensi&lt;/div&gt;&lt;div&gt;Terapi&lt;/div&gt;" style="shape=trapezoid;perimeter=trapezoidPerimeter;whiteSpace=wrap;html=1;fixedSize=1;direction=west;" vertex="1" parent="1">
          <mxGeometry x="900" y="110" width="140" height="60" as="geometry" />
        </mxCell>
        <mxCell id="eW-R5iicQMV0fVVOpjZG-14" style="edgeStyle=orthogonalEdgeStyle;rounded=0;orthogonalLoop=1;jettySize=auto;html=1;exitX=1;exitY=0.5;exitDx=0;exitDy=0;entryX=0.5;entryY=0;entryDx=0;entryDy=0;" edge="1" parent="1" source="eW-R5iicQMV0fVVOpjZG-10" target="eW-R5iicQMV0fVVOpjZG-13">
          <mxGeometry relative="1" as="geometry" />
        </mxCell>
        <mxCell id="eW-R5iicQMV0fVVOpjZG-16" style="edgeStyle=orthogonalEdgeStyle;rounded=0;orthogonalLoop=1;jettySize=auto;html=1;exitX=0.5;exitY=1;exitDx=0;exitDy=0;entryX=0.5;entryY=0;entryDx=0;entryDy=0;" edge="1" parent="1" source="eW-R5iicQMV0fVVOpjZG-10" target="eW-R5iicQMV0fVVOpjZG-15">
          <mxGeometry relative="1" as="geometry" />
        </mxCell>
        <mxCell id="eW-R5iicQMV0fVVOpjZG-24" style="edgeStyle=orthogonalEdgeStyle;rounded=0;orthogonalLoop=1;jettySize=auto;html=1;exitX=0;exitY=0.5;exitDx=0;exitDy=0;entryX=0.5;entryY=1;entryDx=0;entryDy=0;" edge="1" parent="1" source="eW-R5iicQMV0fVVOpjZG-10" target="eW-R5iicQMV0fVVOpjZG-23">
          <mxGeometry relative="1" as="geometry" />
        </mxCell>
        <mxCell id="eW-R5iicQMV0fVVOpjZG-10" value="Dilakukan Terapi" style="rounded=0;whiteSpace=wrap;html=1;" vertex="1" parent="1">
          <mxGeometry x="910" y="210" width="120" height="60" as="geometry" />
        </mxCell>
        <mxCell id="eW-R5iicQMV0fVVOpjZG-18" style="edgeStyle=orthogonalEdgeStyle;rounded=0;orthogonalLoop=1;jettySize=auto;html=1;exitX=0.5;exitY=1;exitDx=0;exitDy=0;entryX=0.5;entryY=0;entryDx=0;entryDy=0;" edge="1" parent="1" source="eW-R5iicQMV0fVVOpjZG-13" target="eW-R5iicQMV0fVVOpjZG-17">
          <mxGeometry relative="1" as="geometry" />
        </mxCell>
        <mxCell id="eW-R5iicQMV0fVVOpjZG-13" value="Timer per jam" style="shape=hexagon;perimeter=hexagonPerimeter2;whiteSpace=wrap;html=1;fixedSize=1;" vertex="1" parent="1">
          <mxGeometry x="1090" y="270" width="120" height="60" as="geometry" />
        </mxCell>
        <mxCell id="BxA_tvvW-p3Lq2fZlm-q-7" style="edgeStyle=orthogonalEdgeStyle;rounded=0;orthogonalLoop=1;jettySize=auto;html=1;" edge="1" parent="1" source="eW-R5iicQMV0fVVOpjZG-15" target="BxA_tvvW-p3Lq2fZlm-q-6">
          <mxGeometry relative="1" as="geometry" />
        </mxCell>
        <mxCell id="eW-R5iicQMV0fVVOpjZG-15" value="Terapi Selesai" style="rounded=0;whiteSpace=wrap;html=1;" vertex="1" parent="1">
          <mxGeometry x="910" y="370" width="120" height="60" as="geometry" />
        </mxCell>
        <mxCell id="BxA_tvvW-p3Lq2fZlm-q-5" style="edgeStyle=orthogonalEdgeStyle;rounded=0;orthogonalLoop=1;jettySize=auto;html=1;entryX=1;entryY=0.5;entryDx=0;entryDy=0;" edge="1" parent="1" source="eW-R5iicQMV0fVVOpjZG-17" target="eW-R5iicQMV0fVVOpjZG-15">
          <mxGeometry relative="1" as="geometry" />
        </mxCell>
        <mxCell id="eW-R5iicQMV0fVVOpjZG-17" value="Hitung Biaya Terapi" style="rounded=0;whiteSpace=wrap;html=1;" vertex="1" parent="1">
          <mxGeometry x="1090" y="370" width="120" height="60" as="geometry" />
        </mxCell>
        <mxCell id="eW-R5iicQMV0fVVOpjZG-25" style="edgeStyle=orthogonalEdgeStyle;rounded=0;orthogonalLoop=1;jettySize=auto;html=1;exitX=0.5;exitY=0;exitDx=0;exitDy=0;entryX=0;entryY=0.5;entryDx=0;entryDy=0;" edge="1" parent="1" source="eW-R5iicQMV0fVVOpjZG-23" target="eW-R5iicQMV0fVVOpjZG-15">
          <mxGeometry relative="1" as="geometry" />
        </mxCell>
        <mxCell id="eW-R5iicQMV0fVVOpjZG-23" value="Terapis Mengisi Dokumen yang Diperlukan" style="shape=trapezoid;perimeter=trapezoidPerimeter;whiteSpace=wrap;html=1;fixedSize=1;direction=west;" vertex="1" parent="1">
          <mxGeometry x="800" y="290" width="140" height="60" as="geometry" />
        </mxCell>
        <mxCell id="BxA_tvvW-p3Lq2fZlm-q-2" style="edgeStyle=orthogonalEdgeStyle;rounded=0;orthogonalLoop=1;jettySize=auto;html=1;exitX=0.5;exitY=1;exitDx=0;exitDy=0;entryX=0.5;entryY=1;entryDx=0;entryDy=0;" edge="1" parent="1" source="eW-R5iicQMV0fVVOpjZG-26" target="BxA_tvvW-p3Lq2fZlm-q-1">
          <mxGeometry relative="1" as="geometry" />
        </mxCell>
        <mxCell id="eW-R5iicQMV0fVVOpjZG-26" value="Invoice Pembayaran&lt;div&gt;Ditampilkan&lt;/div&gt;" style="shape=parallelogram;perimeter=parallelogramPerimeter;whiteSpace=wrap;html=1;fixedSize=1;" vertex="1" parent="1">
          <mxGeometry x="890" y="569" width="160" height="60" as="geometry" />
        </mxCell>
        <mxCell id="BxA_tvvW-p3Lq2fZlm-q-4" style="edgeStyle=orthogonalEdgeStyle;rounded=0;orthogonalLoop=1;jettySize=auto;html=1;exitX=0.5;exitY=0;exitDx=0;exitDy=0;entryX=0.5;entryY=0;entryDx=0;entryDy=0;" edge="1" parent="1" source="BxA_tvvW-p3Lq2fZlm-q-1" target="BxA_tvvW-p3Lq2fZlm-q-3">
          <mxGeometry relative="1" as="geometry" />
        </mxCell>
        <mxCell id="BxA_tvvW-p3Lq2fZlm-q-1" value="Orangtua Melakukan&lt;div&gt;Pembayaran&lt;/div&gt;" style="shape=trapezoid;perimeter=trapezoidPerimeter;whiteSpace=wrap;html=1;fixedSize=1;direction=west;" vertex="1" parent="1">
          <mxGeometry x="900" y="669" width="140" height="60" as="geometry" />
        </mxCell>
        <mxCell id="BxA_tvvW-p3Lq2fZlm-q-3" value="Selesai" style="rounded=1;whiteSpace=wrap;html=1;arcSize=50;" vertex="1" parent="1">
          <mxGeometry x="910" y="769" width="120" height="40" as="geometry" />
        </mxCell>
        <mxCell id="BxA_tvvW-p3Lq2fZlm-q-8" style="edgeStyle=orthogonalEdgeStyle;rounded=0;orthogonalLoop=1;jettySize=auto;html=1;entryX=0.5;entryY=0;entryDx=0;entryDy=0;" edge="1" parent="1" source="BxA_tvvW-p3Lq2fZlm-q-6" target="eW-R5iicQMV0fVVOpjZG-26">
          <mxGeometry relative="1" as="geometry" />
        </mxCell>
        <mxCell id="BxA_tvvW-p3Lq2fZlm-q-6" value="Orangtua Mendapat&lt;div&gt;Pemberitahuan&lt;/div&gt;&lt;div&gt;Terapi Selesai&lt;/div&gt;" style="rounded=0;whiteSpace=wrap;html=1;" vertex="1" parent="1">
          <mxGeometry x="910" y="470" width="120" height="60" as="geometry" />
        </mxCell>
        <mxCell id="Zi5Q-Tb7QUG8fCoQBuen-3" style="edgeStyle=orthogonalEdgeStyle;rounded=0;orthogonalLoop=1;jettySize=auto;html=1;exitX=0.5;exitY=1;exitDx=0;exitDy=0;" edge="1" parent="1" source="Zi5Q-Tb7QUG8fCoQBuen-1" target="Zi5Q-Tb7QUG8fCoQBuen-2">
          <mxGeometry relative="1" as="geometry" />
        </mxCell>
        <mxCell id="Zi5Q-Tb7QUG8fCoQBuen-1" value="A" style="ellipse;whiteSpace=wrap;html=1;aspect=fixed;" vertex="1" parent="1">
          <mxGeometry x="620" y="10" width="60" height="60" as="geometry" />
        </mxCell>
        <mxCell id="Zi5Q-Tb7QUG8fCoQBuen-5" style="edgeStyle=orthogonalEdgeStyle;rounded=0;orthogonalLoop=1;jettySize=auto;html=1;exitX=0.5;exitY=1;exitDx=0;exitDy=0;entryX=0.5;entryY=1;entryDx=0;entryDy=0;" edge="1" parent="1" source="Zi5Q-Tb7QUG8fCoQBuen-2" target="Zi5Q-Tb7QUG8fCoQBuen-4">
          <mxGeometry relative="1" as="geometry" />
        </mxCell>
        <mxCell id="Zi5Q-Tb7QUG8fCoQBuen-2" value="Menuju ke Halaman&lt;div&gt;Formulir Assesmen&lt;/div&gt;" style="rounded=0;whiteSpace=wrap;html=1;" vertex="1" parent="1">
          <mxGeometry x="590" y="110" width="120" height="60" as="geometry" />
        </mxCell>
        <mxCell id="Zi5Q-Tb7QUG8fCoQBuen-7" style="edgeStyle=orthogonalEdgeStyle;rounded=0;orthogonalLoop=1;jettySize=auto;html=1;exitX=0.5;exitY=0;exitDx=0;exitDy=0;" edge="1" parent="1" source="Zi5Q-Tb7QUG8fCoQBuen-4" target="Zi5Q-Tb7QUG8fCoQBuen-6">
          <mxGeometry relative="1" as="geometry" />
        </mxCell>
        <mxCell id="Zi5Q-Tb7QUG8fCoQBuen-4" value="Orangtua Mengisi&lt;div&gt;Semua Data Yang&lt;/div&gt;&lt;div&gt;Diperlukan&lt;/div&gt;" style="shape=trapezoid;perimeter=trapezoidPerimeter;whiteSpace=wrap;html=1;fixedSize=1;direction=west;" vertex="1" parent="1">
          <mxGeometry x="580" y="210" width="140" height="60" as="geometry" />
        </mxCell>
        <mxCell id="t--2mBaaqY7UOBgUyRUD-2" style="edgeStyle=orthogonalEdgeStyle;rounded=0;orthogonalLoop=1;jettySize=auto;html=1;" edge="1" parent="1" source="Zi5Q-Tb7QUG8fCoQBuen-6" target="t--2mBaaqY7UOBgUyRUD-1">
          <mxGeometry relative="1" as="geometry" />
        </mxCell>
        <mxCell id="Zi5Q-Tb7QUG8fCoQBuen-6" value="Dilakukan Penjadwalan Terapi Sesuai Kebutuhan" style="rounded=0;whiteSpace=wrap;html=1;" vertex="1" parent="1">
          <mxGeometry x="590" y="310" width="120" height="60" as="geometry" />
        </mxCell>
        <mxCell id="t--2mBaaqY7UOBgUyRUD-5" style="edgeStyle=orthogonalEdgeStyle;rounded=0;orthogonalLoop=1;jettySize=auto;html=1;entryX=0.5;entryY=0;entryDx=0;entryDy=0;" edge="1" parent="1" source="t--2mBaaqY7UOBgUyRUD-1" target="t--2mBaaqY7UOBgUyRUD-4">
          <mxGeometry relative="1" as="geometry" />
        </mxCell>
        <mxCell id="t--2mBaaqY7UOBgUyRUD-1" value="Orangtua Dapat&lt;div&gt;Melihat Jadwal&lt;div&gt;Terapi&lt;/div&gt;&lt;/div&gt;" style="shape=parallelogram;perimeter=parallelogramPerimeter;whiteSpace=wrap;html=1;fixedSize=1;" vertex="1" parent="1">
          <mxGeometry x="570" y="410" width="160" height="60" as="geometry" />
        </mxCell>
        <mxCell id="t--2mBaaqY7UOBgUyRUD-4" value="B" style="ellipse;whiteSpace=wrap;html=1;aspect=fixed;" vertex="1" parent="1">
          <mxGeometry x="620" y="510" width="60" height="60" as="geometry" />
        </mxCell>
      </root>
    </mxGraphModel>
  </diagram>
  <diagram name="terapis (observasi)" id="JDnyYov60YoudlzFVFhf">
    <mxGraphModel grid="1" page="1" gridSize="10" guides="1" tooltips="1" connect="1" arrows="1" fold="1" pageScale="1" pageWidth="827" pageHeight="1169" math="0" shadow="0">
      <root>
        <mxCell id="ap4p1SLCj6A3l3S7EWf4-0" />
        <mxCell id="ap4p1SLCj6A3l3S7EWf4-1" parent="ap4p1SLCj6A3l3S7EWf4-0" />
        <mxCell id="GNtUn77TRI4SG2oPgvzS-1" value="" style="group" connectable="0" vertex="1" parent="ap4p1SLCj6A3l3S7EWf4-1">
          <mxGeometry x="-1570" y="40" width="1160" height="1010" as="geometry" />
        </mxCell>
        <mxCell id="T7cPaaQjnprsgzq3kHzK-1" value="Tidak" style="text;html=1;align=center;verticalAlign=middle;resizable=0;points=[];autosize=1;strokeColor=none;fillColor=none;" vertex="1" parent="GNtUn77TRI4SG2oPgvzS-1">
          <mxGeometry x="130" y="920" width="50" height="30" as="geometry" />
        </mxCell>
        <mxCell id="T7cPaaQjnprsgzq3kHzK-2" value="Ya" style="text;html=1;align=center;verticalAlign=middle;resizable=0;points=[];autosize=1;strokeColor=none;fillColor=none;" vertex="1" parent="GNtUn77TRI4SG2oPgvzS-1">
          <mxGeometry x="330" y="920" width="40" height="30" as="geometry" />
        </mxCell>
        <mxCell id="T7cPaaQjnprsgzq3kHzK-6" value="" style="edgeStyle=orthogonalEdgeStyle;rounded=0;orthogonalLoop=1;jettySize=auto;html=1;" edge="1" parent="GNtUn77TRI4SG2oPgvzS-1" source="T7cPaaQjnprsgzq3kHzK-3" target="T7cPaaQjnprsgzq3kHzK-5">
          <mxGeometry relative="1" as="geometry" />
        </mxCell>
        <mxCell id="T7cPaaQjnprsgzq3kHzK-3" value="Pilih Anak" style="whiteSpace=wrap;html=1;strokeWidth=2;" vertex="1" parent="GNtUn77TRI4SG2oPgvzS-1">
          <mxGeometry x="580" y="480" width="120" height="60" as="geometry" />
        </mxCell>
        <mxCell id="T7cPaaQjnprsgzq3kHzK-4" value="" style="edgeStyle=orthogonalEdgeStyle;rounded=0;orthogonalLoop=1;jettySize=auto;html=1;" edge="1" parent="GNtUn77TRI4SG2oPgvzS-1" source="XZA5SXdm1X22vWuajySv-3" target="T7cPaaQjnprsgzq3kHzK-3">
          <mxGeometry relative="1" as="geometry" />
        </mxCell>
        <mxCell id="T7cPaaQjnprsgzq3kHzK-9" value="" style="edgeStyle=orthogonalEdgeStyle;rounded=0;orthogonalLoop=1;jettySize=auto;html=1;" edge="1" parent="GNtUn77TRI4SG2oPgvzS-1" source="T7cPaaQjnprsgzq3kHzK-5" target="T7cPaaQjnprsgzq3kHzK-8">
          <mxGeometry relative="1" as="geometry" />
        </mxCell>
        <mxCell id="gLLZcVRQ3A9UYMFGabZf-1" value="" style="edgeStyle=orthogonalEdgeStyle;rounded=0;orthogonalLoop=1;jettySize=auto;html=1;" edge="1" parent="GNtUn77TRI4SG2oPgvzS-1" source="T7cPaaQjnprsgzq3kHzK-5" target="gLLZcVRQ3A9UYMFGabZf-0">
          <mxGeometry relative="1" as="geometry" />
        </mxCell>
        <mxCell id="T7cPaaQjnprsgzq3kHzK-5" value="Melakukan Assesment" style="whiteSpace=wrap;html=1;strokeWidth=2;" vertex="1" parent="GNtUn77TRI4SG2oPgvzS-1">
          <mxGeometry x="580" y="620" width="120" height="60" as="geometry" />
        </mxCell>
        <mxCell id="HTuOcWmmmD6Ct2eez1ar-13" value="" style="edgeStyle=orthogonalEdgeStyle;rounded=0;orthogonalLoop=1;jettySize=auto;html=1;" edge="1" parent="GNtUn77TRI4SG2oPgvzS-1" source="lEFLuFaOxEezV-2_fBbF-0" target="HTuOcWmmmD6Ct2eez1ar-12">
          <mxGeometry relative="1" as="geometry" />
        </mxCell>
        <mxCell id="lEFLuFaOxEezV-2_fBbF-0" value="Mulai" style="strokeWidth=2;html=1;shape=mxgraph.flowchart.terminator;whiteSpace=wrap;" vertex="1" parent="GNtUn77TRI4SG2oPgvzS-1">
          <mxGeometry x="605" width="70" height="40" as="geometry" />
        </mxCell>
        <mxCell id="XZA5SXdm1X22vWuajySv-2" value="" style="edgeStyle=orthogonalEdgeStyle;rounded=0;orthogonalLoop=1;jettySize=auto;html=1;" edge="1" parent="GNtUn77TRI4SG2oPgvzS-1" source="j01dK14im7i6x7psM2ZE-0" target="XZA5SXdm1X22vWuajySv-1">
          <mxGeometry relative="1" as="geometry" />
        </mxCell>
        <mxCell id="XZA5SXdm1X22vWuajySv-4" value="" style="edgeStyle=orthogonalEdgeStyle;rounded=0;orthogonalLoop=1;jettySize=auto;html=1;" edge="1" parent="GNtUn77TRI4SG2oPgvzS-1" source="j01dK14im7i6x7psM2ZE-0" target="XZA5SXdm1X22vWuajySv-3">
          <mxGeometry relative="1" as="geometry" />
        </mxCell>
        <mxCell id="W5vBTSbiH-nid9h-jQHL-2" value="" style="edgeStyle=orthogonalEdgeStyle;rounded=0;orthogonalLoop=1;jettySize=auto;html=1;" edge="1" parent="GNtUn77TRI4SG2oPgvzS-1" source="j01dK14im7i6x7psM2ZE-0" target="W5vBTSbiH-nid9h-jQHL-1">
          <mxGeometry relative="1" as="geometry" />
        </mxCell>
        <mxCell id="j01dK14im7i6x7psM2ZE-0" value="Menu Fitur" style="strokeWidth=2;html=1;shape=mxgraph.flowchart.decision;whiteSpace=wrap;" vertex="1" parent="GNtUn77TRI4SG2oPgvzS-1">
          <mxGeometry x="590" y="200" width="100" height="100" as="geometry" />
        </mxCell>
        <mxCell id="4mS1zTorXyRMN6mHh-Dp-1" value="" style="edgeStyle=orthogonalEdgeStyle;rounded=0;orthogonalLoop=1;jettySize=auto;html=1;" edge="1" parent="GNtUn77TRI4SG2oPgvzS-1" source="XZA5SXdm1X22vWuajySv-1" target="4mS1zTorXyRMN6mHh-Dp-0">
          <mxGeometry relative="1" as="geometry" />
        </mxCell>
        <mxCell id="XZA5SXdm1X22vWuajySv-1" value="Jadwal Observasi" style="shape=parallelogram;perimeter=parallelogramPerimeter;whiteSpace=wrap;html=1;fixedSize=1;strokeWidth=2;" vertex="1" parent="GNtUn77TRI4SG2oPgvzS-1">
          <mxGeometry x="180" y="340" width="140" height="60" as="geometry" />
        </mxCell>
        <mxCell id="XZA5SXdm1X22vWuajySv-3" value="Jadwal Assesment" style="shape=parallelogram;perimeter=parallelogramPerimeter;whiteSpace=wrap;html=1;fixedSize=1;strokeWidth=2;" vertex="1" parent="GNtUn77TRI4SG2oPgvzS-1">
          <mxGeometry x="570" y="340" width="140" height="60" as="geometry" />
        </mxCell>
        <mxCell id="HTuOcWmmmD6Ct2eez1ar-1" value="" style="edgeStyle=orthogonalEdgeStyle;rounded=0;orthogonalLoop=1;jettySize=auto;html=1;" edge="1" parent="GNtUn77TRI4SG2oPgvzS-1" source="W5vBTSbiH-nid9h-jQHL-1" target="HTuOcWmmmD6Ct2eez1ar-0">
          <mxGeometry relative="1" as="geometry" />
        </mxCell>
        <mxCell id="W5vBTSbiH-nid9h-jQHL-1" value="Jadwal Terapi" style="shape=parallelogram;perimeter=parallelogramPerimeter;whiteSpace=wrap;html=1;fixedSize=1;strokeWidth=2;" vertex="1" parent="GNtUn77TRI4SG2oPgvzS-1">
          <mxGeometry x="960" y="340" width="120" height="60" as="geometry" />
        </mxCell>
        <mxCell id="4mS1zTorXyRMN6mHh-Dp-3" value="" style="edgeStyle=orthogonalEdgeStyle;rounded=0;orthogonalLoop=1;jettySize=auto;html=1;" edge="1" parent="GNtUn77TRI4SG2oPgvzS-1" source="4mS1zTorXyRMN6mHh-Dp-0" target="4mS1zTorXyRMN6mHh-Dp-2">
          <mxGeometry relative="1" as="geometry" />
        </mxCell>
        <mxCell id="4mS1zTorXyRMN6mHh-Dp-0" value="Pilih Kategori Usia" style="whiteSpace=wrap;html=1;strokeWidth=2;" vertex="1" parent="GNtUn77TRI4SG2oPgvzS-1">
          <mxGeometry x="190" y="480" width="120" height="60" as="geometry" />
        </mxCell>
        <mxCell id="pEKCFm50ezcZXsdak0Q8-1" value="" style="edgeStyle=orthogonalEdgeStyle;rounded=0;orthogonalLoop=1;jettySize=auto;html=1;" edge="1" parent="GNtUn77TRI4SG2oPgvzS-1" source="4mS1zTorXyRMN6mHh-Dp-2" target="pEKCFm50ezcZXsdak0Q8-0">
          <mxGeometry relative="1" as="geometry" />
        </mxCell>
        <mxCell id="4mS1zTorXyRMN6mHh-Dp-2" value="Pilih Anak" style="whiteSpace=wrap;html=1;strokeWidth=2;" vertex="1" parent="GNtUn77TRI4SG2oPgvzS-1">
          <mxGeometry x="190" y="620" width="120" height="60" as="geometry" />
        </mxCell>
        <mxCell id="pEKCFm50ezcZXsdak0Q8-3" value="" style="edgeStyle=orthogonalEdgeStyle;rounded=0;orthogonalLoop=1;jettySize=auto;html=1;" edge="1" parent="GNtUn77TRI4SG2oPgvzS-1" source="pEKCFm50ezcZXsdak0Q8-0" target="pEKCFm50ezcZXsdak0Q8-2">
          <mxGeometry relative="1" as="geometry" />
        </mxCell>
        <mxCell id="pEKCFm50ezcZXsdak0Q8-5" value="" style="edgeStyle=orthogonalEdgeStyle;rounded=0;orthogonalLoop=1;jettySize=auto;html=1;" edge="1" parent="GNtUn77TRI4SG2oPgvzS-1" source="pEKCFm50ezcZXsdak0Q8-0" target="pEKCFm50ezcZXsdak0Q8-4">
          <mxGeometry relative="1" as="geometry" />
        </mxCell>
        <mxCell id="pEKCFm50ezcZXsdak0Q8-0" value="Melakukan Observasi" style="whiteSpace=wrap;html=1;strokeWidth=2;" vertex="1" parent="GNtUn77TRI4SG2oPgvzS-1">
          <mxGeometry x="190" y="760" width="120" height="60" as="geometry" />
        </mxCell>
        <mxCell id="pEKCFm50ezcZXsdak0Q8-2" value="Hasil Observasi" style="shape=document;whiteSpace=wrap;html=1;boundedLbl=1;strokeWidth=2;" vertex="1" parent="GNtUn77TRI4SG2oPgvzS-1">
          <mxGeometry y="760" width="100" height="60" as="geometry" />
        </mxCell>
        <mxCell id="pEKCFm50ezcZXsdak0Q8-6" style="edgeStyle=orthogonalEdgeStyle;rounded=0;orthogonalLoop=1;jettySize=auto;html=1;exitX=1;exitY=0.5;exitDx=0;exitDy=0;" edge="1" parent="GNtUn77TRI4SG2oPgvzS-1" source="pEKCFm50ezcZXsdak0Q8-4" target="XZA5SXdm1X22vWuajySv-3">
          <mxGeometry relative="1" as="geometry">
            <mxPoint x="294" y="945" as="sourcePoint" />
            <mxPoint x="559" y="370" as="targetPoint" />
            <Array as="points">
              <mxPoint x="297" y="945" />
              <mxPoint x="399" y="945" />
              <mxPoint x="399" y="370" />
            </Array>
          </mxGeometry>
        </mxCell>
        <mxCell id="pEKCFm50ezcZXsdak0Q8-8" value="" style="edgeStyle=orthogonalEdgeStyle;rounded=0;orthogonalLoop=1;jettySize=auto;html=1;" edge="1" parent="GNtUn77TRI4SG2oPgvzS-1" source="pEKCFm50ezcZXsdak0Q8-4" target="pEKCFm50ezcZXsdak0Q8-7">
          <mxGeometry relative="1" as="geometry" />
        </mxCell>
        <mxCell id="pEKCFm50ezcZXsdak0Q8-7" value="Selesai" style="rounded=1;whiteSpace=wrap;html=1;strokeWidth=2;" vertex="1" parent="GNtUn77TRI4SG2oPgvzS-1">
          <mxGeometry x="20" y="922.5" width="80" height="45" as="geometry" />
        </mxCell>
        <mxCell id="pEKCFm50ezcZXsdak0Q8-4" value="Perlu Tindak Lanjut ?" style="rhombus;whiteSpace=wrap;html=1;strokeWidth=2;" vertex="1" parent="GNtUn77TRI4SG2oPgvzS-1">
          <mxGeometry x="202.5" y="895" width="95" height="100" as="geometry" />
        </mxCell>
        <mxCell id="T7cPaaQjnprsgzq3kHzK-8" value="Hasil Assesment" style="shape=document;whiteSpace=wrap;html=1;boundedLbl=1;strokeWidth=2;" vertex="1" parent="GNtUn77TRI4SG2oPgvzS-1">
          <mxGeometry x="430" y="620" width="90" height="60" as="geometry" />
        </mxCell>
        <mxCell id="gLLZcVRQ3A9UYMFGabZf-3" value="" style="edgeStyle=orthogonalEdgeStyle;rounded=0;orthogonalLoop=1;jettySize=auto;html=1;" edge="1" parent="GNtUn77TRI4SG2oPgvzS-1" source="gLLZcVRQ3A9UYMFGabZf-0" target="gLLZcVRQ3A9UYMFGabZf-2">
          <mxGeometry relative="1" as="geometry" />
        </mxCell>
        <mxCell id="gLLZcVRQ3A9UYMFGabZf-5" style="edgeStyle=orthogonalEdgeStyle;rounded=0;orthogonalLoop=1;jettySize=auto;html=1;entryX=0;entryY=0.5;entryDx=0;entryDy=0;exitX=1;exitY=0.5;exitDx=0;exitDy=0;" edge="1" parent="GNtUn77TRI4SG2oPgvzS-1" source="HTuOcWmmmD6Ct2eez1ar-17" target="W5vBTSbiH-nid9h-jQHL-1">
          <mxGeometry relative="1" as="geometry">
            <Array as="points">
              <mxPoint x="790" y="980" />
              <mxPoint x="790" y="370" />
            </Array>
          </mxGeometry>
        </mxCell>
        <mxCell id="HTuOcWmmmD6Ct2eez1ar-18" value="" style="edgeStyle=orthogonalEdgeStyle;rounded=0;orthogonalLoop=1;jettySize=auto;html=1;" edge="1" parent="GNtUn77TRI4SG2oPgvzS-1" source="gLLZcVRQ3A9UYMFGabZf-0" target="HTuOcWmmmD6Ct2eez1ar-17">
          <mxGeometry relative="1" as="geometry" />
        </mxCell>
        <mxCell id="gLLZcVRQ3A9UYMFGabZf-0" value="Perlu Tindak Lanjut ?" style="rhombus;whiteSpace=wrap;html=1;strokeWidth=2;" vertex="1" parent="GNtUn77TRI4SG2oPgvzS-1">
          <mxGeometry x="592.5" y="750" width="95" height="100" as="geometry" />
        </mxCell>
        <mxCell id="gLLZcVRQ3A9UYMFGabZf-2" value="Selesai" style="rounded=1;whiteSpace=wrap;html=1;strokeWidth=2;" vertex="1" parent="GNtUn77TRI4SG2oPgvzS-1">
          <mxGeometry x="450" y="780" width="85" height="40" as="geometry" />
        </mxCell>
        <mxCell id="gLLZcVRQ3A9UYMFGabZf-4" value="Tidak" style="text;html=1;align=center;verticalAlign=middle;resizable=0;points=[];autosize=1;strokeColor=none;fillColor=none;" vertex="1" parent="GNtUn77TRI4SG2oPgvzS-1">
          <mxGeometry x="545" y="769" width="50" height="30" as="geometry" />
        </mxCell>
        <mxCell id="gLLZcVRQ3A9UYMFGabZf-6" value="Ya" style="text;html=1;align=center;verticalAlign=middle;resizable=0;points=[];autosize=1;strokeColor=none;fillColor=none;" vertex="1" parent="GNtUn77TRI4SG2oPgvzS-1">
          <mxGeometry x="635" y="870" width="40" height="30" as="geometry" />
        </mxCell>
        <mxCell id="HTuOcWmmmD6Ct2eez1ar-3" value="" style="edgeStyle=orthogonalEdgeStyle;rounded=0;orthogonalLoop=1;jettySize=auto;html=1;" edge="1" parent="GNtUn77TRI4SG2oPgvzS-1" source="HTuOcWmmmD6Ct2eez1ar-0" target="HTuOcWmmmD6Ct2eez1ar-2">
          <mxGeometry relative="1" as="geometry" />
        </mxCell>
        <mxCell id="HTuOcWmmmD6Ct2eez1ar-0" value="Pilih Anak" style="whiteSpace=wrap;html=1;strokeWidth=2;" vertex="1" parent="GNtUn77TRI4SG2oPgvzS-1">
          <mxGeometry x="960" y="480" width="120" height="60" as="geometry" />
        </mxCell>
        <mxCell id="HTuOcWmmmD6Ct2eez1ar-5" value="" style="edgeStyle=orthogonalEdgeStyle;rounded=0;orthogonalLoop=1;jettySize=auto;html=1;" edge="1" parent="GNtUn77TRI4SG2oPgvzS-1" source="HTuOcWmmmD6Ct2eez1ar-2" target="HTuOcWmmmD6Ct2eez1ar-4">
          <mxGeometry relative="1" as="geometry" />
        </mxCell>
        <mxCell id="HTuOcWmmmD6Ct2eez1ar-7" value="" style="edgeStyle=orthogonalEdgeStyle;rounded=0;orthogonalLoop=1;jettySize=auto;html=1;" edge="1" parent="GNtUn77TRI4SG2oPgvzS-1" source="HTuOcWmmmD6Ct2eez1ar-2" target="HTuOcWmmmD6Ct2eez1ar-6">
          <mxGeometry relative="1" as="geometry" />
        </mxCell>
        <mxCell id="HTuOcWmmmD6Ct2eez1ar-2" value="Melakukan Terapi" style="whiteSpace=wrap;html=1;strokeWidth=2;" vertex="1" parent="GNtUn77TRI4SG2oPgvzS-1">
          <mxGeometry x="960" y="620" width="120" height="60" as="geometry" />
        </mxCell>
        <mxCell id="HTuOcWmmmD6Ct2eez1ar-4" value="Laporan Sesi Terapi" style="shape=document;whiteSpace=wrap;html=1;boundedLbl=1;strokeWidth=2;" vertex="1" parent="GNtUn77TRI4SG2oPgvzS-1">
          <mxGeometry x="820" y="625" width="80" height="50" as="geometry" />
        </mxCell>
        <mxCell id="HTuOcWmmmD6Ct2eez1ar-9" value="" style="edgeStyle=orthogonalEdgeStyle;rounded=0;orthogonalLoop=1;jettySize=auto;html=1;entryX=0.5;entryY=0;entryDx=0;entryDy=0;" edge="1" parent="GNtUn77TRI4SG2oPgvzS-1" source="HTuOcWmmmD6Ct2eez1ar-6" target="HTuOcWmmmD6Ct2eez1ar-15">
          <mxGeometry relative="1" as="geometry">
            <mxPoint x="1020" y="890" as="targetPoint" />
          </mxGeometry>
        </mxCell>
        <mxCell id="HTuOcWmmmD6Ct2eez1ar-11" value="" style="edgeStyle=orthogonalEdgeStyle;rounded=0;orthogonalLoop=1;jettySize=auto;html=1;" edge="1" parent="GNtUn77TRI4SG2oPgvzS-1" source="HTuOcWmmmD6Ct2eez1ar-6" target="HTuOcWmmmD6Ct2eez1ar-10">
          <mxGeometry relative="1" as="geometry" />
        </mxCell>
        <mxCell id="HTuOcWmmmD6Ct2eez1ar-6" value="Sesi Evaluasi" style="whiteSpace=wrap;html=1;strokeWidth=2;" vertex="1" parent="GNtUn77TRI4SG2oPgvzS-1">
          <mxGeometry x="960" y="760" width="120" height="60" as="geometry" />
        </mxCell>
        <mxCell id="HTuOcWmmmD6Ct2eez1ar-10" value="Hasil Evaluasi" style="shape=document;whiteSpace=wrap;html=1;boundedLbl=1;strokeWidth=2;" vertex="1" parent="GNtUn77TRI4SG2oPgvzS-1">
          <mxGeometry x="820" y="765" width="80" height="50" as="geometry" />
        </mxCell>
        <mxCell id="HTuOcWmmmD6Ct2eez1ar-12" value="Login ke Website" style="whiteSpace=wrap;html=1;strokeWidth=2;" vertex="1" parent="GNtUn77TRI4SG2oPgvzS-1">
          <mxGeometry x="580" y="100" width="120" height="30" as="geometry" />
        </mxCell>
        <mxCell id="HTuOcWmmmD6Ct2eez1ar-14" style="edgeStyle=orthogonalEdgeStyle;rounded=0;orthogonalLoop=1;jettySize=auto;html=1;entryX=0.5;entryY=0;entryDx=0;entryDy=0;entryPerimeter=0;" edge="1" parent="GNtUn77TRI4SG2oPgvzS-1" source="HTuOcWmmmD6Ct2eez1ar-12" target="j01dK14im7i6x7psM2ZE-0">
          <mxGeometry relative="1" as="geometry" />
        </mxCell>
        <mxCell id="HTuOcWmmmD6Ct2eez1ar-20" value="" style="edgeStyle=orthogonalEdgeStyle;rounded=0;orthogonalLoop=1;jettySize=auto;html=1;" edge="1" parent="GNtUn77TRI4SG2oPgvzS-1" source="HTuOcWmmmD6Ct2eez1ar-15" target="HTuOcWmmmD6Ct2eez1ar-19">
          <mxGeometry relative="1" as="geometry" />
        </mxCell>
        <mxCell id="HTuOcWmmmD6Ct2eez1ar-26" style="edgeStyle=orthogonalEdgeStyle;rounded=0;orthogonalLoop=1;jettySize=auto;html=1;entryX=1;entryY=0.5;entryDx=0;entryDy=0;" edge="1" parent="GNtUn77TRI4SG2oPgvzS-1" source="HTuOcWmmmD6Ct2eez1ar-15" target="W5vBTSbiH-nid9h-jQHL-1">
          <mxGeometry relative="1" as="geometry">
            <Array as="points">
              <mxPoint x="1160" y="935" />
              <mxPoint x="1160" y="370" />
            </Array>
          </mxGeometry>
        </mxCell>
        <mxCell id="HTuOcWmmmD6Ct2eez1ar-15" value="Perlu Tindak Lanjut ?" style="rhombus;whiteSpace=wrap;html=1;strokeWidth=2;" vertex="1" parent="GNtUn77TRI4SG2oPgvzS-1">
          <mxGeometry x="972.5" y="885" width="95" height="100" as="geometry" />
        </mxCell>
        <mxCell id="HTuOcWmmmD6Ct2eez1ar-17" value="Tentukan Jenis Terapi" style="whiteSpace=wrap;html=1;strokeWidth=2;" vertex="1" parent="GNtUn77TRI4SG2oPgvzS-1">
          <mxGeometry x="580" y="950" width="120" height="60" as="geometry" />
        </mxCell>
        <mxCell id="HTuOcWmmmD6Ct2eez1ar-19" value="selesai" style="rounded=1;whiteSpace=wrap;html=1;strokeWidth=2;" vertex="1" parent="GNtUn77TRI4SG2oPgvzS-1">
          <mxGeometry x="840" y="922.5" width="75" height="25" as="geometry" />
        </mxCell>
        <mxCell id="HTuOcWmmmD6Ct2eez1ar-27" value="Tidak" style="text;html=1;align=center;verticalAlign=middle;resizable=0;points=[];autosize=1;strokeColor=none;fillColor=none;" vertex="1" parent="GNtUn77TRI4SG2oPgvzS-1">
          <mxGeometry x="925" y="908" width="50" height="30" as="geometry" />
        </mxCell>
        <mxCell id="HTuOcWmmmD6Ct2eez1ar-28" value="Ya" style="text;html=1;align=center;verticalAlign=middle;resizable=0;points=[];autosize=1;strokeColor=none;fillColor=none;" vertex="1" parent="GNtUn77TRI4SG2oPgvzS-1">
          <mxGeometry x="1090" y="898" width="40" height="30" as="geometry" />
        </mxCell>
      </root>
    </mxGraphModel>
  </diagram>
  <diagram name="Admin" id="oVcvp6jMtcNpTsjcYY6e">
    <mxGraphModel dx="1048" dy="601" grid="1" gridSize="10" guides="1" tooltips="1" connect="1" arrows="1" fold="1" page="1" pageScale="1" pageWidth="827" pageHeight="1169" math="0" shadow="0">
      <root>
        <mxCell id="0" />
        <mxCell id="1" parent="0" />
        <mxCell id="btZFdrEmoKfK57cl8dbV-1" style="edgeStyle=orthogonalEdgeStyle;rounded=0;orthogonalLoop=1;jettySize=auto;html=1;exitX=0.5;exitY=1;exitDx=0;exitDy=0;entryX=0.5;entryY=0;entryDx=0;entryDy=0;" parent="1" source="btZFdrEmoKfK57cl8dbV-2" target="btZFdrEmoKfK57cl8dbV-6" edge="1">
          <mxGeometry relative="1" as="geometry" />
        </mxCell>
        <mxCell id="btZFdrEmoKfK57cl8dbV-2" value="Dashboard - Admin" style="shape=parallelogram;perimeter=parallelogramPerimeter;whiteSpace=wrap;html=1;fixedSize=1;" parent="1" vertex="1">
          <mxGeometry x="1310" y="210" width="196" height="60" as="geometry" />
        </mxCell>
        <mxCell id="btZFdrEmoKfK57cl8dbV-3" style="edgeStyle=orthogonalEdgeStyle;rounded=0;orthogonalLoop=1;jettySize=auto;html=1;exitX=0.5;exitY=1;exitDx=0;exitDy=0;entryX=0.5;entryY=0;entryDx=0;entryDy=0;" parent="1" source="btZFdrEmoKfK57cl8dbV-4" target="btZFdrEmoKfK57cl8dbV-13" edge="1">
          <mxGeometry relative="1" as="geometry" />
        </mxCell>
        <mxCell id="btZFdrEmoKfK57cl8dbV-4" value="Admin" style="shape=parallelogram;perimeter=parallelogramPerimeter;whiteSpace=wrap;html=1;fixedSize=1;" parent="1" vertex="1">
          <mxGeometry x="590" y="380" width="120" height="60" as="geometry" />
        </mxCell>
        <mxCell id="btZFdrEmoKfK57cl8dbV-5" style="edgeStyle=orthogonalEdgeStyle;rounded=0;orthogonalLoop=1;jettySize=auto;html=1;exitX=0.5;exitY=1;exitDx=0;exitDy=0;entryX=0.5;entryY=0;entryDx=0;entryDy=0;" parent="1" source="btZFdrEmoKfK57cl8dbV-6" target="btZFdrEmoKfK57cl8dbV-15" edge="1">
          <mxGeometry relative="1" as="geometry" />
        </mxCell>
        <mxCell id="btZFdrEmoKfK57cl8dbV-6" value="Terapis" style="shape=parallelogram;perimeter=parallelogramPerimeter;whiteSpace=wrap;html=1;fixedSize=1;" parent="1" vertex="1">
          <mxGeometry x="1100" y="380" width="120" height="60" as="geometry" />
        </mxCell>
        <mxCell id="btZFdrEmoKfK57cl8dbV-7" style="edgeStyle=orthogonalEdgeStyle;rounded=0;orthogonalLoop=1;jettySize=auto;html=1;exitX=0.5;exitY=1;exitDx=0;exitDy=0;entryX=0.5;entryY=0;entryDx=0;entryDy=0;" parent="1" source="btZFdrEmoKfK57cl8dbV-8" target="btZFdrEmoKfK57cl8dbV-19" edge="1">
          <mxGeometry relative="1" as="geometry" />
        </mxCell>
        <mxCell id="btZFdrEmoKfK57cl8dbV-8" value="Pasien/Anak" style="shape=parallelogram;perimeter=parallelogramPerimeter;whiteSpace=wrap;html=1;fixedSize=1;" parent="1" vertex="1">
          <mxGeometry x="1570" y="380" width="120" height="60" as="geometry" />
        </mxCell>
        <mxCell id="btZFdrEmoKfK57cl8dbV-9" style="edgeStyle=orthogonalEdgeStyle;rounded=0;orthogonalLoop=1;jettySize=auto;html=1;exitX=0.5;exitY=1;exitDx=0;exitDy=0;entryX=0.5;entryY=0;entryDx=0;entryDy=0;" parent="1" source="btZFdrEmoKfK57cl8dbV-10" target="btZFdrEmoKfK57cl8dbV-23" edge="1">
          <mxGeometry relative="1" as="geometry" />
        </mxCell>
        <mxCell id="btZFdrEmoKfK57cl8dbV-10" value="Jadwal" style="shape=parallelogram;perimeter=parallelogramPerimeter;whiteSpace=wrap;html=1;fixedSize=1;" parent="1" vertex="1">
          <mxGeometry x="1860" y="380" width="120" height="60" as="geometry" />
        </mxCell>
        <mxCell id="btZFdrEmoKfK57cl8dbV-11" value="Ubah data admin" style="rounded=0;whiteSpace=wrap;html=1;" parent="1" vertex="1">
          <mxGeometry x="550" y="510" width="90" height="40" as="geometry" />
        </mxCell>
        <mxCell id="btZFdrEmoKfK57cl8dbV-12" value="Hapus data admin" style="rounded=0;whiteSpace=wrap;html=1;" parent="1" vertex="1">
          <mxGeometry x="660" y="510" width="90" height="40" as="geometry" />
        </mxCell>
        <mxCell id="btZFdrEmoKfK57cl8dbV-13" value="Tambah data admin" style="rounded=0;whiteSpace=wrap;html=1;" parent="1" vertex="1">
          <mxGeometry x="440" y="510" width="90" height="40" as="geometry" />
        </mxCell>
        <mxCell id="btZFdrEmoKfK57cl8dbV-14" value="Detail data admin" style="rounded=0;whiteSpace=wrap;html=1;" parent="1" vertex="1">
          <mxGeometry x="770" y="510" width="90" height="40" as="geometry" />
        </mxCell>
        <mxCell id="btZFdrEmoKfK57cl8dbV-15" value="Ubah data admin" style="rounded=0;whiteSpace=wrap;html=1;" parent="1" vertex="1">
          <mxGeometry x="1040" y="510" width="90" height="40" as="geometry" />
        </mxCell>
        <mxCell id="btZFdrEmoKfK57cl8dbV-16" value="Hapus data admin" style="rounded=0;whiteSpace=wrap;html=1;" parent="1" vertex="1">
          <mxGeometry x="1150" y="510" width="90" height="40" as="geometry" />
        </mxCell>
        <mxCell id="btZFdrEmoKfK57cl8dbV-17" value="Tambah data admin" style="rounded=0;whiteSpace=wrap;html=1;" parent="1" vertex="1">
          <mxGeometry x="930" y="510" width="90" height="40" as="geometry" />
        </mxCell>
        <mxCell id="btZFdrEmoKfK57cl8dbV-18" value="Detail data admin" style="rounded=0;whiteSpace=wrap;html=1;" parent="1" vertex="1">
          <mxGeometry x="1260" y="510" width="90" height="40" as="geometry" />
        </mxCell>
        <mxCell id="btZFdrEmoKfK57cl8dbV-19" value="Ubah data admin" style="rounded=0;whiteSpace=wrap;html=1;" parent="1" vertex="1">
          <mxGeometry x="1475" y="510" width="90" height="40" as="geometry" />
        </mxCell>
        <mxCell id="btZFdrEmoKfK57cl8dbV-20" value="Hapus data admin" style="rounded=0;whiteSpace=wrap;html=1;" parent="1" vertex="1">
          <mxGeometry x="1585" y="510" width="90" height="40" as="geometry" />
        </mxCell>
        <mxCell id="btZFdrEmoKfK57cl8dbV-21" value="Detail data admin" style="rounded=0;whiteSpace=wrap;html=1;" parent="1" vertex="1">
          <mxGeometry x="1695" y="510" width="90" height="40" as="geometry" />
        </mxCell>
        <mxCell id="btZFdrEmoKfK57cl8dbV-22" style="edgeStyle=orthogonalEdgeStyle;rounded=0;orthogonalLoop=1;jettySize=auto;html=1;exitX=0.5;exitY=1;exitDx=0;exitDy=0;entryX=0.5;entryY=0;entryDx=0;entryDy=0;" parent="1" source="btZFdrEmoKfK57cl8dbV-23" target="btZFdrEmoKfK57cl8dbV-36" edge="1">
          <mxGeometry relative="1" as="geometry" />
        </mxCell>
        <mxCell id="btZFdrEmoKfK57cl8dbV-23" value="Menunggu" style="rounded=0;whiteSpace=wrap;html=1;" parent="1" vertex="1">
          <mxGeometry x="1875" y="510" width="90" height="40" as="geometry" />
        </mxCell>
        <mxCell id="btZFdrEmoKfK57cl8dbV-24" style="edgeStyle=orthogonalEdgeStyle;rounded=0;orthogonalLoop=1;jettySize=auto;html=1;exitX=0.5;exitY=1;exitDx=0;exitDy=0;entryX=0.5;entryY=0;entryDx=0;entryDy=0;" parent="1" source="btZFdrEmoKfK57cl8dbV-2" target="btZFdrEmoKfK57cl8dbV-4" edge="1">
          <mxGeometry relative="1" as="geometry">
            <mxPoint x="1458" y="320" as="sourcePoint" />
            <mxPoint x="1210" y="430" as="targetPoint" />
          </mxGeometry>
        </mxCell>
        <mxCell id="btZFdrEmoKfK57cl8dbV-25" style="edgeStyle=orthogonalEdgeStyle;rounded=0;orthogonalLoop=1;jettySize=auto;html=1;exitX=0.5;exitY=1;exitDx=0;exitDy=0;entryX=0.5;entryY=0;entryDx=0;entryDy=0;" parent="1" source="btZFdrEmoKfK57cl8dbV-2" target="btZFdrEmoKfK57cl8dbV-8" edge="1">
          <mxGeometry relative="1" as="geometry">
            <mxPoint x="2233" y="320" as="sourcePoint" />
            <mxPoint x="1475" y="430" as="targetPoint" />
          </mxGeometry>
        </mxCell>
        <mxCell id="btZFdrEmoKfK57cl8dbV-26" style="edgeStyle=orthogonalEdgeStyle;rounded=0;orthogonalLoop=1;jettySize=auto;html=1;exitX=0.5;exitY=1;exitDx=0;exitDy=0;entryX=0.5;entryY=0;entryDx=0;entryDy=0;" parent="1" source="btZFdrEmoKfK57cl8dbV-2" target="btZFdrEmoKfK57cl8dbV-10" edge="1">
          <mxGeometry relative="1" as="geometry">
            <mxPoint x="1600" y="320" as="sourcePoint" />
            <mxPoint x="1822" y="430" as="targetPoint" />
          </mxGeometry>
        </mxCell>
        <mxCell id="btZFdrEmoKfK57cl8dbV-27" style="edgeStyle=orthogonalEdgeStyle;rounded=0;orthogonalLoop=1;jettySize=auto;html=1;exitX=0.5;exitY=1;exitDx=0;exitDy=0;entryX=0.5;entryY=0;entryDx=0;entryDy=0;" parent="1" source="btZFdrEmoKfK57cl8dbV-4" target="btZFdrEmoKfK57cl8dbV-11" edge="1">
          <mxGeometry relative="1" as="geometry">
            <mxPoint x="795" y="460" as="sourcePoint" />
            <mxPoint x="630" y="530" as="targetPoint" />
          </mxGeometry>
        </mxCell>
        <mxCell id="btZFdrEmoKfK57cl8dbV-28" style="edgeStyle=orthogonalEdgeStyle;rounded=0;orthogonalLoop=1;jettySize=auto;html=1;exitX=0.5;exitY=1;exitDx=0;exitDy=0;entryX=0.5;entryY=0;entryDx=0;entryDy=0;" parent="1" source="btZFdrEmoKfK57cl8dbV-4" target="btZFdrEmoKfK57cl8dbV-12" edge="1">
          <mxGeometry relative="1" as="geometry">
            <mxPoint x="775" y="460" as="sourcePoint" />
            <mxPoint x="720" y="530" as="targetPoint" />
          </mxGeometry>
        </mxCell>
        <mxCell id="btZFdrEmoKfK57cl8dbV-29" style="edgeStyle=orthogonalEdgeStyle;rounded=0;orthogonalLoop=1;jettySize=auto;html=1;exitX=0.5;exitY=1;exitDx=0;exitDy=0;entryX=0.5;entryY=0;entryDx=0;entryDy=0;" parent="1" source="btZFdrEmoKfK57cl8dbV-4" target="btZFdrEmoKfK57cl8dbV-14" edge="1">
          <mxGeometry relative="1" as="geometry">
            <mxPoint x="700" y="470" as="sourcePoint" />
            <mxPoint x="755" y="540" as="targetPoint" />
          </mxGeometry>
        </mxCell>
        <mxCell id="btZFdrEmoKfK57cl8dbV-30" style="edgeStyle=orthogonalEdgeStyle;rounded=0;orthogonalLoop=1;jettySize=auto;html=1;exitX=0.5;exitY=1;exitDx=0;exitDy=0;entryX=0.5;entryY=0;entryDx=0;entryDy=0;" parent="1" source="btZFdrEmoKfK57cl8dbV-6" target="btZFdrEmoKfK57cl8dbV-17" edge="1">
          <mxGeometry relative="1" as="geometry">
            <mxPoint x="760" y="480" as="sourcePoint" />
            <mxPoint x="925" y="550" as="targetPoint" />
          </mxGeometry>
        </mxCell>
        <mxCell id="btZFdrEmoKfK57cl8dbV-31" style="edgeStyle=orthogonalEdgeStyle;rounded=0;orthogonalLoop=1;jettySize=auto;html=1;exitX=0.5;exitY=1;exitDx=0;exitDy=0;entryX=0.5;entryY=0;entryDx=0;entryDy=0;" parent="1" source="btZFdrEmoKfK57cl8dbV-6" target="btZFdrEmoKfK57cl8dbV-16" edge="1">
          <mxGeometry relative="1" as="geometry">
            <mxPoint x="1325" y="470" as="sourcePoint" />
            <mxPoint x="1140" y="540" as="targetPoint" />
          </mxGeometry>
        </mxCell>
        <mxCell id="btZFdrEmoKfK57cl8dbV-32" style="edgeStyle=orthogonalEdgeStyle;rounded=0;orthogonalLoop=1;jettySize=auto;html=1;exitX=0.5;exitY=1;exitDx=0;exitDy=0;entryX=0.5;entryY=0;entryDx=0;entryDy=0;" parent="1" source="btZFdrEmoKfK57cl8dbV-6" target="btZFdrEmoKfK57cl8dbV-18" edge="1">
          <mxGeometry relative="1" as="geometry">
            <mxPoint x="1300" y="470" as="sourcePoint" />
            <mxPoint x="1335" y="540" as="targetPoint" />
          </mxGeometry>
        </mxCell>
        <mxCell id="btZFdrEmoKfK57cl8dbV-33" style="edgeStyle=orthogonalEdgeStyle;rounded=0;orthogonalLoop=1;jettySize=auto;html=1;exitX=0.5;exitY=1;exitDx=0;exitDy=0;entryX=0.5;entryY=0;entryDx=0;entryDy=0;" parent="1" source="btZFdrEmoKfK57cl8dbV-8" target="btZFdrEmoKfK57cl8dbV-20" edge="1">
          <mxGeometry relative="1" as="geometry">
            <mxPoint x="1790" y="470" as="sourcePoint" />
            <mxPoint x="1680" y="540" as="targetPoint" />
          </mxGeometry>
        </mxCell>
        <mxCell id="btZFdrEmoKfK57cl8dbV-34" style="edgeStyle=orthogonalEdgeStyle;rounded=0;orthogonalLoop=1;jettySize=auto;html=1;exitX=0.5;exitY=1;exitDx=0;exitDy=0;entryX=0.5;entryY=0;entryDx=0;entryDy=0;" parent="1" source="btZFdrEmoKfK57cl8dbV-8" target="btZFdrEmoKfK57cl8dbV-21" edge="1">
          <mxGeometry relative="1" as="geometry">
            <mxPoint x="1670" y="470" as="sourcePoint" />
            <mxPoint x="1560" y="540" as="targetPoint" />
          </mxGeometry>
        </mxCell>
        <mxCell id="btZFdrEmoKfK57cl8dbV-35" style="edgeStyle=orthogonalEdgeStyle;rounded=0;orthogonalLoop=1;jettySize=auto;html=1;exitX=0.5;exitY=1;exitDx=0;exitDy=0;entryX=0.5;entryY=0;entryDx=0;entryDy=0;" parent="1" source="btZFdrEmoKfK57cl8dbV-36" target="btZFdrEmoKfK57cl8dbV-37" edge="1">
          <mxGeometry relative="1" as="geometry" />
        </mxCell>
        <mxCell id="btZFdrEmoKfK57cl8dbV-36" value="Pilih tanggal" style="rounded=0;whiteSpace=wrap;html=1;" parent="1" vertex="1">
          <mxGeometry x="1875" y="610" width="90" height="40" as="geometry" />
        </mxCell>
        <mxCell id="btZFdrEmoKfK57cl8dbV-37" value="Terjadwal" style="rounded=0;whiteSpace=wrap;html=1;" parent="1" vertex="1">
          <mxGeometry x="1875" y="720" width="90" height="40" as="geometry" />
        </mxCell>
        <mxCell id="sNf6o5DQ2rv6coEuhP3o-2" style="edgeStyle=orthogonalEdgeStyle;rounded=0;orthogonalLoop=1;jettySize=auto;html=1;entryX=0.5;entryY=0;entryDx=0;entryDy=0;" parent="1" source="sNf6o5DQ2rv6coEuhP3o-1" target="btZFdrEmoKfK57cl8dbV-2" edge="1">
          <mxGeometry relative="1" as="geometry" />
        </mxCell>
        <mxCell id="sNf6o5DQ2rv6coEuhP3o-1" value="Login Admin" style="ellipse;whiteSpace=wrap;html=1;" parent="1" vertex="1">
          <mxGeometry x="1348" y="30" width="120" height="60" as="geometry" />
        </mxCell>
      </root>
    </mxGraphModel>
  </diagram>
</mxfile>
